<svg width="170" height="22" viewBox="0 0 170 22" fill="none" xmlns="http://www.w3.org/2000/svg">
<path d="M2.90985 4.795V18H0.743848V4.795H2.90985ZM16.6026 18H14.4366L7.91961 8.139V18H5.75361V4.776H7.91961L14.4366 14.618V4.776H16.6026V18ZM21.594 4.795V13.212C21.594 14.2127 21.8536 14.9663 22.373 15.473C22.905 15.9797 23.6396 16.233 24.577 16.233C25.527 16.233 26.2616 15.9797 26.781 15.473C27.313 14.9663 27.579 14.2127 27.579 13.212V4.795H29.745V13.174C29.745 14.2507 29.5106 15.1627 29.042 15.91C28.5733 16.6573 27.9463 17.2147 27.161 17.582C26.3756 17.9493 25.508 18.133 24.558 18.133C23.608 18.133 22.7403 17.9493 21.955 17.582C21.1823 17.2147 20.568 16.6573 20.112 15.91C19.656 15.1627 19.428 14.2507 19.428 13.174V4.795H21.594ZM39.8421 18L34.7311 12.091V18H32.5651V4.795H34.7311V10.818L39.8611 4.795H42.5781L36.8401 11.407L42.6731 18H39.8421ZM52.5496 15.302H47.0206L46.0706 18H43.8096L48.5406 4.776H51.0486L55.7796 18H53.4996L52.5496 15.302ZM51.9416 13.535L49.7946 7.398L47.6286 13.535H51.9416ZM62.3871 12.841C62.5998 12.5477 62.8894 12.3093 63.2561 12.126C63.6301 11.9353 64.0444 11.84 64.4991 11.84C65.0344 11.84 65.5184 11.9683 65.9511 12.225C66.3838 12.4817 66.7248 12.8483 66.9741 13.325C67.2234 13.7943 67.3481 14.3333 67.3481 14.942C67.3481 15.5507 67.2234 16.097 66.9741 16.581C66.7248 17.0577 66.3801 17.4317 65.9401 17.703C65.5074 17.967 65.0271 18.099 64.4991 18.099C64.0298 18.099 63.6118 18.0073 63.2451 17.824C62.8858 17.6407 62.5998 17.406 62.3871 17.12V18H61.1331V9.86H62.3871V12.841ZM66.0721 14.942C66.0721 14.524 65.9841 14.1647 65.8081 13.864C65.6394 13.556 65.4121 13.325 65.1261 13.171C64.8474 13.0097 64.5468 12.929 64.2241 12.929C63.9088 12.929 63.6081 13.0097 63.3221 13.171C63.0434 13.3323 62.8161 13.567 62.6401 13.875C62.4714 14.183 62.3871 14.546 62.3871 14.964C62.3871 15.382 62.4714 15.7487 62.6401 16.064C62.8161 16.372 63.0434 16.6067 63.3221 16.768C63.6081 16.9293 63.9088 17.01 64.2241 17.01C64.5468 17.01 64.8474 16.9293 65.1261 16.768C65.4121 16.5993 65.6394 16.3573 65.8081 16.042C65.9841 15.7267 66.0721 15.36 66.0721 14.942ZM74.0442 11.939L70.3262 20.849H69.0282L70.2602 17.901L67.8732 11.939H69.2702L70.9752 16.559L72.7462 11.939H74.0442Z" fill="black"/>
<path d="M80.0835 16.2256C80.0086 16.3454 79.9562 16.4801 79.9263 16.6299C79.8963 16.7796 79.8439 16.9144 79.769 17.0342C79.7091 17.154 79.6418 17.2663 79.5669 17.3711C79.492 17.4759 79.4396 17.6032 79.4097 17.7529C79.3947 17.8577 79.3947 17.9775 79.4097 18.1123C79.4396 18.2471 79.4396 18.3594 79.4097 18.4492C79.3947 18.5091 79.3647 18.5615 79.3198 18.6064C79.2749 18.6663 79.2749 18.7337 79.3198 18.8086C79.0503 18.9284 78.8107 18.9733 78.6011 18.9434C78.3914 18.9134 78.2118 18.846 78.062 18.7412C77.9871 18.7562 77.9272 18.7487 77.8823 18.7188C77.8224 18.6888 77.7625 18.6514 77.7026 18.6064C77.6278 18.5765 77.5978 18.5241 77.6128 18.4492C77.6128 18.3743 77.5978 18.307 77.5679 18.2471C77.493 18.0225 77.4406 17.8727 77.4106 17.7979C77.3657 17.708 77.3507 17.6107 77.3657 17.5059C77.3957 17.3112 77.4705 17.154 77.5903 17.0342C77.6951 16.8994 77.785 16.7572 77.8599 16.6074C77.9497 16.3828 78.0321 16.1882 78.1069 16.0234C78.1968 15.8587 78.2941 15.7015 78.3989 15.5518C78.4139 15.4919 78.4364 15.4395 78.4663 15.3945C78.5112 15.3496 78.5487 15.3047 78.5786 15.2598C78.6086 15.1849 78.6385 15.125 78.6685 15.0801C78.6984 15.0202 78.7284 14.9603 78.7583 14.9004C78.8032 14.8255 78.8407 14.7432 78.8706 14.6533C78.9155 14.5635 78.9604 14.4811 79.0054 14.4062C79.0353 14.3314 79.0728 14.2565 79.1177 14.1816C79.1626 14.1068 79.2075 14.0319 79.2524 13.957C79.2674 13.9121 79.2824 13.8672 79.2974 13.8223C79.3123 13.7773 79.3423 13.7399 79.3872 13.71C79.3872 13.6201 79.4022 13.5602 79.4321 13.5303C79.4621 13.4854 79.4771 13.4105 79.4771 13.3057C79.5519 13.2158 79.6193 13.126 79.6792 13.0361C79.7391 12.9313 79.8065 12.834 79.8813 12.7441C80.0461 12.4746 80.1733 12.2725 80.2632 12.1377C80.353 11.988 80.4354 11.8307 80.5103 11.666C80.5103 11.5911 80.5252 11.5312 80.5552 11.4863C80.5851 11.4264 80.6151 11.3665 80.645 11.3066C80.675 11.2617 80.6974 11.2093 80.7124 11.1494C80.7274 11.0895 80.7573 11.0446 80.8022 11.0146C80.9071 10.7152 80.9969 10.4756 81.0718 10.2959C81.1466 10.1162 81.2215 9.94401 81.2964 9.7793C81.3413 9.67448 81.3787 9.6071 81.4087 9.57715C81.4536 9.53223 81.4836 9.49479 81.4985 9.46484C81.5884 9.24023 81.6632 9.07552 81.7231 8.9707C81.783 8.85091 81.828 8.73112 81.8579 8.61133C81.9328 8.44661 82.0151 8.29688 82.105 8.16211C82.1948 8.02734 82.2622 7.85514 82.3071 7.64551C82.367 7.60059 82.4045 7.54818 82.4194 7.48828C82.4494 7.41341 82.4943 7.35352 82.5542 7.30859C82.5841 7.21875 82.6216 7.12891 82.6665 7.03906C82.7114 6.94922 82.7563 6.85938 82.8013 6.76953C82.8462 6.70964 82.8836 6.64974 82.9136 6.58984C82.9435 6.52995 82.9735 6.46257 83.0034 6.3877C83.1082 6.19303 83.2205 6.01335 83.3403 5.84863C83.4601 5.66895 83.5649 5.48926 83.6548 5.30957C83.7446 5.08496 83.8045 4.94271 83.8345 4.88281C83.8794 4.82292 83.9093 4.75553 83.9243 4.68066C83.7297 4.74056 83.5275 4.81543 83.3179 4.90527C83.1082 4.98014 82.8687 5.0026 82.5991 4.97266C82.4344 4.94271 82.3221 4.94271 82.2622 4.97266C82.2173 5.0026 82.1649 5.01758 82.105 5.01758C82.0301 5.03255 81.9627 5.04004 81.9028 5.04004C81.8579 5.04004 81.8055 5.05501 81.7456 5.08496C81.491 5.1748 81.3114 5.24219 81.2065 5.28711C81.1167 5.33203 81.0194 5.32454 80.9146 5.26465C80.9295 5.14486 80.9445 5.01758 80.9595 4.88281C80.9744 4.74805 81.0194 4.63574 81.0942 4.5459C81.4536 4.24642 81.8429 3.99186 82.2622 3.78223C82.6965 3.55762 83.1457 3.34049 83.6099 3.13086C83.7746 3.08594 83.9243 3.0485 84.0591 3.01855C84.1938 2.97363 84.3211 2.92122 84.4409 2.86133C84.5607 2.60677 84.688 2.36719 84.8228 2.14258C84.9575 1.91797 85.1147 1.71582 85.2944 1.53613C85.4442 1.44629 85.5116 1.40885 85.4966 1.42383C85.4816 1.4388 85.5116 1.44629 85.5864 1.44629C85.6463 1.47624 85.6838 1.51367 85.6987 1.55859C85.7287 1.58854 85.7586 1.64095 85.7886 1.71582C85.8335 1.77572 85.8634 1.83561 85.8784 1.89551C85.9084 1.9554 85.9608 1.99284 86.0356 2.00781C86.0806 2.02279 86.1255 2.02279 86.1704 2.00781C86.2303 1.97786 86.2902 1.9554 86.3501 1.94043C86.4998 1.92546 86.6121 1.90299 86.687 1.87305C86.7769 1.8431 86.8592 1.83561 86.9341 1.85059C87.009 1.82064 87.0913 1.80566 87.1812 1.80566C87.286 1.79069 87.3758 1.76823 87.4507 1.73828C87.5555 1.72331 87.6453 1.70085 87.7202 1.6709C87.8101 1.64095 87.9149 1.61849 88.0347 1.60352C88.424 1.57357 88.8358 1.611 89.27 1.71582C89.3299 1.74577 89.3898 1.7832 89.4497 1.82812C89.5246 1.85807 89.5994 1.88802 89.6743 1.91797C89.7941 1.97786 89.8989 2.02279 89.9888 2.05273C90.0936 2.08268 90.1834 2.13509 90.2583 2.20996C90.408 2.3597 90.5278 2.50944 90.6177 2.65918C90.6776 2.67415 90.73 2.7041 90.7749 2.74902C90.8198 2.79395 90.8647 2.83138 90.9097 2.86133C90.9995 3.02604 91.0894 3.18327 91.1792 3.33301C91.269 3.46777 91.3289 3.63249 91.3589 3.82715C91.3888 4.08171 91.3739 4.34375 91.314 4.61328C91.269 4.86784 91.2241 5.1224 91.1792 5.37695C91.1642 5.45182 91.1493 5.52669 91.1343 5.60156C91.1193 5.66146 91.1043 5.72135 91.0894 5.78125C91.0744 5.82617 91.0669 5.87858 91.0669 5.93848C91.0819 5.9834 91.0894 6.03581 91.0894 6.0957C91.0744 6.27539 91.0369 6.44759 90.9771 6.6123C90.9321 6.77702 90.8872 6.94173 90.8423 7.10645C90.7225 7.54069 90.5952 7.95247 90.4604 8.3418C90.3407 8.73112 90.1235 9.04557 89.8091 9.28516C89.7342 9.40495 89.6519 9.50977 89.562 9.59961C89.4722 9.68945 89.3748 9.78678 89.27 9.8916C89.0754 10.1312 88.8208 10.3184 88.5063 10.4531C88.0571 10.7826 87.6004 11.0745 87.1362 11.3291C86.9565 11.4489 86.7769 11.5687 86.5972 11.6885C86.4175 11.8083 86.2228 11.9131 86.0132 12.0029C85.9084 12.0928 85.7886 12.1751 85.6538 12.25C85.534 12.3099 85.4067 12.3773 85.272 12.4521C84.9276 12.6169 84.6056 12.7741 84.3062 12.9238C84.0216 13.0736 83.7072 13.2008 83.3628 13.3057C83.0933 13.3656 82.8387 13.4105 82.5991 13.4404C82.3595 13.4554 82.1349 13.4329 81.9253 13.373C81.8804 13.3581 81.813 13.3356 81.7231 13.3057C81.6483 13.2607 81.5959 13.2383 81.5659 13.2383C81.491 13.2682 81.4312 13.3656 81.3862 13.5303C81.3413 13.68 81.3039 13.7923 81.2739 13.8672C81.1841 14.0768 81.0793 14.2865 80.9595 14.4961C80.8397 14.6908 80.7274 14.8929 80.6226 15.1025C80.5327 15.2822 80.4429 15.4694 80.353 15.6641C80.2632 15.8587 80.1733 16.0459 80.0835 16.2256ZM83.1831 11.3965C83.3029 11.3066 83.4526 11.2692 83.6323 11.2842C83.812 11.2992 83.9692 11.2917 84.104 11.2617C84.2388 11.2318 84.3136 11.2243 84.3286 11.2393C84.3586 11.2393 84.3885 11.2393 84.4185 11.2393C84.4634 11.2393 84.5233 11.2318 84.5981 11.2168C84.673 11.2018 84.7254 11.1868 84.7554 11.1719C84.9351 11.112 85.1073 11.0296 85.272 10.9248C85.4367 10.82 85.6014 10.7376 85.7661 10.6777C85.841 10.6029 85.9233 10.543 86.0132 10.498C86.103 10.4382 86.2004 10.3708 86.3052 10.2959C86.38 10.221 86.4549 10.1462 86.5298 10.0713C86.6047 9.99642 86.6945 9.94401 86.7993 9.91406C86.8742 9.79427 86.9191 9.73438 86.9341 9.73438C86.9491 9.7194 86.9565 9.70443 86.9565 9.68945C87.1063 9.58464 87.2261 9.46484 87.3159 9.33008C87.4207 9.18034 87.5256 9.02311 87.6304 8.8584C87.7352 8.72363 87.84 8.58887 87.9448 8.4541C88.0496 8.30436 88.1395 8.14714 88.2144 7.98242C88.3042 7.86263 88.3866 7.75781 88.4614 7.66797C88.5363 7.56315 88.6112 7.45085 88.686 7.33105C88.716 7.30111 88.731 7.26367 88.731 7.21875C88.731 7.17383 88.7459 7.12891 88.7759 7.08398C88.8507 6.9043 88.9106 6.78451 88.9556 6.72461C89.0005 6.57487 89.0529 6.47005 89.1128 6.41016C89.1427 6.35026 89.1727 6.29785 89.2026 6.25293C89.2326 6.20801 89.2625 6.1556 89.2925 6.0957C89.3224 6.02083 89.3524 5.96094 89.3823 5.91602C89.4272 5.85612 89.4647 5.79622 89.4946 5.73633C89.5246 5.70638 89.5396 5.66895 89.5396 5.62402C89.5545 5.5791 89.577 5.53418 89.6069 5.48926C89.6219 5.44434 89.6369 5.4069 89.6519 5.37695C89.6818 5.33203 89.7043 5.2946 89.7192 5.26465C89.7642 5.14486 89.7716 5.01758 89.7417 4.88281C89.7118 4.74805 89.6968 4.63574 89.6968 4.5459C89.6369 4.32129 89.5994 4.1416 89.5845 4.00684C89.5695 3.87207 89.5246 3.76725 89.4497 3.69238C89.4198 3.66243 89.3823 3.64746 89.3374 3.64746C89.2925 3.63249 89.255 3.61003 89.2251 3.58008C89.0754 3.52018 88.9705 3.49772 88.9106 3.5127C88.8657 3.5127 88.8058 3.49772 88.731 3.46777C88.6261 3.5127 88.4989 3.52767 88.3491 3.5127C88.2144 3.48275 88.0646 3.47526 87.8999 3.49023C87.8101 3.49023 87.7202 3.5127 87.6304 3.55762C87.5405 3.58757 87.4582 3.58757 87.3833 3.55762C87.3234 3.58757 87.271 3.61003 87.2261 3.625C87.1812 3.63997 87.1287 3.64746 87.0688 3.64746C86.994 3.66243 86.9266 3.66992 86.8667 3.66992C86.8068 3.66992 86.7469 3.67741 86.687 3.69238C86.4924 3.72233 86.3052 3.77474 86.1255 3.84961C85.9608 3.92448 85.7811 3.99186 85.5864 4.05176C85.5864 4.17155 85.5715 4.27637 85.5415 4.36621C85.5116 4.45605 85.4966 4.55339 85.4966 4.6582C85.4067 4.91276 85.3019 5.15983 85.1821 5.39941C85.0623 5.639 84.965 5.88607 84.8901 6.14062C84.7254 6.4401 84.5757 6.75456 84.4409 7.08398C84.3062 7.39844 84.1564 7.71289 83.9917 8.02734C83.9019 8.22201 83.797 8.41667 83.6772 8.61133C83.5575 8.80599 83.4826 9.0306 83.4526 9.28516C83.3778 9.44987 83.3179 9.6071 83.2729 9.75684C83.243 9.90658 83.1981 10.0488 83.1382 10.1836C83.1082 10.2585 83.0783 10.3258 83.0483 10.3857C83.0184 10.4456 82.9884 10.513 82.9585 10.5879C82.9285 10.6328 82.9061 10.6852 82.8911 10.7451C82.8761 10.79 82.8537 10.8499 82.8237 10.9248C82.7489 11.0596 82.6965 11.1719 82.6665 11.2617C82.6515 11.3516 82.6291 11.4414 82.5991 11.5312C82.674 11.5163 82.7563 11.4863 82.8462 11.4414C82.951 11.3965 83.0633 11.3815 83.1831 11.3965ZM95.0649 11.7109C95.1548 11.8906 95.2521 12.0628 95.3569 12.2275C95.4767 12.3773 95.5591 12.5645 95.604 12.7891C95.6639 12.8639 95.6938 12.9463 95.6938 13.0361C95.6938 13.126 95.7088 13.2158 95.7388 13.3057C95.8436 13.68 95.9709 14.0469 96.1206 14.4062C96.2853 14.7507 96.4425 15.0801 96.5923 15.3945C96.6222 15.6491 96.6971 15.8587 96.8169 16.0234C96.9517 16.1732 97.034 16.3753 97.064 16.6299C97.1838 16.9144 97.3185 17.1839 97.4683 17.4385C97.618 17.693 97.7677 17.9476 97.9175 18.2021C97.9924 18.2471 98.0672 18.292 98.1421 18.3369C98.217 18.3818 98.2993 18.4342 98.3892 18.4941C98.4491 18.5241 98.5015 18.554 98.5464 18.584C98.5913 18.6289 98.6512 18.6663 98.7261 18.6963C98.8009 18.7262 98.8683 18.7487 98.9282 18.7637C99.0031 18.7786 99.078 18.8011 99.1528 18.8311C99.2127 18.861 99.2576 18.8984 99.2876 18.9434C99.3325 18.9883 99.3774 19.0257 99.4224 19.0557C99.4823 19.0706 99.5422 19.0856 99.6021 19.1006C99.6619 19.1305 99.7218 19.138 99.7817 19.123C100.036 19.2428 100.253 19.3252 100.433 19.3701C100.613 19.415 100.785 19.4674 100.95 19.5273C101.025 19.5573 101.114 19.5872 101.219 19.6172C101.339 19.6471 101.436 19.6621 101.511 19.6621C101.631 19.722 101.706 19.7819 101.736 19.8418C101.781 19.9167 101.826 19.9915 101.871 20.0664C101.931 20.1562 102.005 20.2311 102.095 20.291C102.185 20.3659 102.305 20.4108 102.455 20.4258C102.5 20.4557 102.529 20.4932 102.544 20.5381C102.574 20.598 102.619 20.6504 102.679 20.6953C102.829 20.8151 102.889 20.89 102.859 20.9199C102.844 20.9499 102.829 20.9873 102.814 21.0322C102.709 21.0472 102.604 21.0622 102.5 21.0771C102.395 21.0921 102.32 21.137 102.275 21.2119C102.185 21.2119 102.08 21.2119 101.96 21.2119C101.856 21.2269 101.766 21.2044 101.691 21.1445C101.436 21.1595 101.204 21.1445 100.995 21.0996C100.785 21.0547 100.53 21.0173 100.231 20.9873C100.066 20.9873 99.909 20.9948 99.7593 21.0098C99.6095 21.0247 99.4748 21.0098 99.355 20.9648C99.0256 20.8301 98.7635 20.7103 98.5688 20.6055C98.3742 20.5007 98.172 20.3883 97.9624 20.2686C97.7977 20.1937 97.6479 20.1038 97.5132 19.999C97.3784 19.8942 97.2287 19.8044 97.064 19.7295C96.8543 19.4899 96.6522 19.2578 96.4575 19.0332C96.2629 18.8086 96.0832 18.5615 95.9185 18.292C95.8586 18.1872 95.8062 18.1048 95.7612 18.0449C95.7313 17.985 95.7013 17.9251 95.6714 17.8652C95.6115 17.7305 95.5591 17.6481 95.5142 17.6182C95.4692 17.5882 95.4318 17.5433 95.4019 17.4834C95.3569 17.4085 95.3195 17.3187 95.2896 17.2139C95.2596 17.109 95.2297 17.0042 95.1997 16.8994C95.1698 16.7646 95.1398 16.6374 95.1099 16.5176C95.0799 16.3828 95.0425 16.2555 94.9976 16.1357C94.9676 16.0459 94.9227 15.971 94.8628 15.9111C94.8179 15.8363 94.7879 15.7464 94.7729 15.6416C94.7131 15.4769 94.6532 15.3122 94.5933 15.1475C94.5483 14.9678 94.5109 14.7806 94.481 14.5859C94.436 14.3014 94.3761 14.0843 94.3013 13.9346C94.2414 13.7699 94.1965 13.6126 94.1665 13.4629C94.0767 13.2383 93.9494 12.9762 93.7847 12.6768C93.62 12.3773 93.4777 12.1152 93.3579 11.8906C93.328 11.8158 93.3055 11.7559 93.2905 11.7109C93.2905 11.666 93.2681 11.6286 93.2231 11.5986C93.1483 11.6735 93.0809 11.8008 93.021 11.9805C92.9611 12.1602 92.9012 12.2949 92.8413 12.3848C92.6766 12.6543 92.5718 12.8714 92.5269 13.0361C92.4819 13.1859 92.4146 13.3356 92.3247 13.4854C92.2798 13.7848 92.1974 14.0469 92.0776 14.2715C92.0477 14.4811 91.9728 14.6383 91.853 14.7432C91.7782 15.0127 91.6883 15.2822 91.5835 15.5518C91.4787 15.8213 91.3813 16.0833 91.2915 16.3379C91.2616 16.4727 91.2241 16.5999 91.1792 16.7197C91.1343 16.8395 91.1193 16.9593 91.1343 17.0791C91.1343 17.1989 91.1118 17.3037 91.0669 17.3936C91.0369 17.4834 91.007 17.5882 90.9771 17.708C90.9022 17.9176 90.7375 18.0449 90.4829 18.0898C90.2433 18.1348 90.0112 18.1872 89.7866 18.2471C89.6968 18.277 89.592 18.307 89.4722 18.3369C89.2925 18.3818 89.0978 18.4567 88.8882 18.5615C88.6935 18.6813 88.4914 18.7262 88.2817 18.6963C88.147 18.6663 88.1021 18.584 88.147 18.4492C88.1769 18.3294 88.2293 18.2396 88.3042 18.1797C88.3791 18.015 88.4614 17.8503 88.5513 17.6855C88.6261 17.5208 88.7085 17.3636 88.7983 17.2139C88.8283 17.0791 88.8807 16.9743 88.9556 16.8994C89.0454 16.8395 89.1053 16.7572 89.1353 16.6523C89.1652 16.6224 89.1877 16.585 89.2026 16.54C89.2326 16.4951 89.255 16.4577 89.27 16.4277C89.3 16.3529 89.3149 16.278 89.3149 16.2031C89.3299 16.1133 89.3524 16.0309 89.3823 15.9561C89.4272 15.8363 89.4647 15.7165 89.4946 15.5967C89.5396 15.4619 89.5994 15.3197 89.6743 15.1699C89.7043 15.0801 89.7342 14.9902 89.7642 14.9004C89.8091 14.8105 89.854 14.7057 89.8989 14.5859C89.9289 14.4961 89.9738 14.4137 90.0337 14.3389C90.0936 14.249 90.146 14.1592 90.1909 14.0693C90.2808 13.8597 90.3481 13.695 90.3931 13.5752C90.438 13.4404 90.4979 13.3132 90.5728 13.1934C90.6925 12.8789 90.8273 12.5944 90.9771 12.3398C91.1418 12.0703 91.299 11.7858 91.4487 11.4863C91.4787 11.4414 91.5086 11.404 91.5386 11.374C91.5685 11.3291 91.591 11.2767 91.606 11.2168C91.6659 11.1868 91.7108 11.1344 91.7407 11.0596C91.7707 10.9847 91.8156 10.9323 91.8755 10.9023C91.9354 10.8125 91.9803 10.7227 92.0103 10.6328C92.0402 10.543 92.0851 10.4681 92.145 10.4082C92.3097 10.1087 92.452 9.80924 92.5718 9.50977C92.6017 9.4349 92.6167 9.36751 92.6167 9.30762C92.6317 9.24772 92.6541 9.18783 92.6841 9.12793C92.7739 9.02311 92.8263 8.94076 92.8413 8.88086C92.8713 8.82096 92.9012 8.76855 92.9312 8.72363C92.991 8.61882 93.0509 8.52148 93.1108 8.43164C93.1857 8.32682 93.2531 8.21452 93.313 8.09473C93.3879 7.87012 93.4852 7.66797 93.605 7.48828C93.7397 7.29362 93.8446 7.09147 93.9194 6.88184C94.0093 6.74707 94.0617 6.6722 94.0767 6.65723C94.0916 6.64225 94.0991 6.61979 94.0991 6.58984C94.2938 6.21549 94.466 5.87109 94.6157 5.55664C94.7804 5.22721 94.9451 4.8903 95.1099 4.5459C94.9451 4.57585 94.7954 4.65072 94.6606 4.77051C94.5409 4.8903 94.4136 4.97266 94.2788 5.01758C94.2489 5.0625 94.2189 5.09993 94.189 5.12988C94.159 5.15983 94.1291 5.18978 94.0991 5.21973C93.7248 5.39941 93.3804 5.60156 93.0659 5.82617C92.7515 6.05078 92.4744 6.3278 92.2349 6.65723C92.16 6.68717 92.0776 6.7321 91.9878 6.79199C91.9129 6.83691 91.8381 6.88184 91.7632 6.92676C91.6584 6.97168 91.5236 7.00163 91.3589 7.0166C91.1942 7.03158 91.0669 6.97917 90.9771 6.85938C90.9172 6.42513 90.9546 6.10319 91.0894 5.89355C91.2241 5.68392 91.3514 5.47428 91.4712 5.26465C91.6659 5.08496 91.8755 4.92773 92.1001 4.79297C92.3247 4.64323 92.5418 4.50098 92.7515 4.36621C92.9461 4.23145 93.0659 4.1416 93.1108 4.09668C93.1707 4.05176 93.2306 4.01432 93.2905 3.98438C93.6499 3.74479 94.0243 3.48275 94.4136 3.19824C94.6532 2.98861 94.9152 2.83138 95.1997 2.72656C95.4842 2.63672 95.7238 2.56934 95.9185 2.52441C96.1131 2.46452 96.2928 2.39714 96.4575 2.32227C96.9367 2.23242 97.3784 2.12012 97.7827 1.98535C98.187 1.83561 98.5988 1.68587 99.0181 1.53613C99.2277 1.50618 99.4224 1.49121 99.6021 1.49121C99.7967 1.47624 100.006 1.46126 100.231 1.44629C100.291 1.49121 100.373 1.51367 100.478 1.51367C100.598 1.4987 100.703 1.4987 100.792 1.51367C100.912 1.54362 101.025 1.57357 101.129 1.60352C101.249 1.61849 101.369 1.64095 101.489 1.6709C101.579 1.76074 101.706 1.82812 101.871 1.87305C102.05 1.90299 102.215 1.94792 102.365 2.00781C102.485 2.06771 102.597 2.1276 102.702 2.1875C102.806 2.23242 102.919 2.28483 103.039 2.34473C103.143 2.46452 103.188 2.56934 103.173 2.65918C103.173 2.74902 103.181 2.8763 103.196 3.04102C103.211 3.11589 103.218 3.19076 103.218 3.26562C103.233 3.32552 103.248 3.3929 103.263 3.46777C103.263 3.52767 103.271 3.58008 103.286 3.625C103.316 3.66992 103.331 3.71484 103.331 3.75977C103.346 4.01432 103.361 4.26888 103.375 4.52344C103.405 4.76302 103.405 5.01009 103.375 5.26465C103.346 5.44434 103.293 5.60156 103.218 5.73633C103.143 5.85612 103.069 5.99837 102.994 6.16309C102.904 6.31283 102.806 6.46257 102.702 6.6123C102.597 6.76204 102.485 6.91927 102.365 7.08398C102.32 7.11393 102.275 7.14388 102.23 7.17383C102.2 7.1888 102.178 7.22624 102.163 7.28613C101.968 7.43587 101.788 7.55566 101.624 7.64551C101.459 7.73535 101.317 7.8252 101.197 7.91504C101.137 7.94499 101.077 7.97493 101.017 8.00488C100.957 8.03483 100.897 8.06478 100.837 8.09473C100.778 8.15462 100.703 8.21452 100.613 8.27441C100.523 8.33431 100.441 8.39421 100.366 8.4541C100.246 8.57389 100.141 8.65625 100.051 8.70117C99.9614 8.74609 99.9015 8.82096 99.8716 8.92578C99.5272 9.12044 99.2202 9.34505 98.9507 9.59961C98.6812 9.83919 98.3892 10.0638 98.0747 10.2734C97.9549 10.3783 97.8351 10.4831 97.7153 10.5879C97.6105 10.6927 97.4832 10.7826 97.3335 10.8574C97.1239 10.9473 96.9666 11.0296 96.8618 11.1045C96.772 11.1794 96.6447 11.2318 96.48 11.2617C96.2853 11.3815 96.0607 11.4788 95.8062 11.5537C95.5666 11.6286 95.3195 11.681 95.0649 11.7109ZM100.074 2.95117C100.014 2.96615 99.939 2.97363 99.8491 2.97363C99.7593 2.97363 99.6619 2.98861 99.5571 3.01855C99.4074 3.0485 99.2427 3.10091 99.063 3.17578C98.8833 3.25065 98.7036 3.30306 98.5239 3.33301C98.2843 3.3929 98.0897 3.44531 97.9399 3.49023C97.8052 3.53516 97.7078 3.57259 97.6479 3.60254C97.618 3.63249 97.5955 3.6849 97.5806 3.75977C97.5806 3.83464 97.5656 3.89453 97.5356 3.93945C97.4757 4.08919 97.4009 4.23145 97.311 4.36621C97.2212 4.486 97.1538 4.60579 97.1089 4.72559C96.9442 4.92025 96.8244 5.11491 96.7495 5.30957C96.6746 5.48926 96.5998 5.66146 96.5249 5.82617C96.3302 6.08073 96.1805 6.30534 96.0757 6.5C96.0008 6.58984 95.9559 6.64225 95.9409 6.65723C95.9259 6.65723 95.9185 6.6722 95.9185 6.70215C95.7388 6.88184 95.589 7.08398 95.4692 7.30859C95.3644 7.5332 95.2297 7.72786 95.0649 7.89258C94.9451 8.07227 94.8553 8.22949 94.7954 8.36426C94.7505 8.49902 94.6681 8.61882 94.5483 8.72363C94.4884 8.84342 94.4285 8.96322 94.3687 9.08301C94.3237 9.18783 94.2713 9.30013 94.2114 9.41992C94.0767 9.7194 93.9119 10.0114 93.7173 10.2959C93.7173 10.3708 93.6948 10.4307 93.6499 10.4756C93.62 10.5205 93.59 10.5729 93.5601 10.6328C93.62 10.6777 93.6799 10.6852 93.7397 10.6553C93.7996 10.6253 93.8521 10.5954 93.897 10.5654C94.2414 10.3708 94.6157 10.2061 95.02 10.0713C95.4243 9.92155 95.7912 9.73438 96.1206 9.50977C96.4051 9.34505 96.6672 9.19531 96.9067 9.06055C97.1463 8.91081 97.3784 8.75358 97.603 8.58887C97.8276 8.46908 97.9998 8.37923 98.1196 8.31934C98.2394 8.24447 98.3817 8.17708 98.5464 8.11719C98.6662 8.01237 98.7935 7.92253 98.9282 7.84766C99.063 7.77279 99.1678 7.68294 99.2427 7.57812C99.4074 7.44336 99.5571 7.29362 99.6919 7.12891C99.8267 6.94922 99.9689 6.78451 100.119 6.63477C100.194 6.61979 100.238 6.59733 100.253 6.56738C100.268 6.52246 100.313 6.5 100.388 6.5C100.508 6.33529 100.65 6.19303 100.815 6.07324C100.995 5.93848 101.129 5.78874 101.219 5.62402C101.294 5.50423 101.347 5.38444 101.376 5.26465C101.421 5.14486 101.481 5.01009 101.556 4.86035C101.526 4.74056 101.549 4.62077 101.624 4.50098C101.713 4.36621 101.743 4.24642 101.713 4.1416C101.683 4.03678 101.624 3.94694 101.534 3.87207C101.444 3.78223 101.376 3.69238 101.332 3.60254C101.302 3.48275 101.264 3.3929 101.219 3.33301C101.189 3.27311 101.159 3.19824 101.129 3.1084C101.069 3.07845 101.017 3.0485 100.972 3.01855C100.927 2.98861 100.852 2.98112 100.748 2.99609C100.673 2.96615 100.568 2.95866 100.433 2.97363C100.313 2.97363 100.194 2.96615 100.074 2.95117ZM112.18 1.62598C112.09 1.82064 112.038 1.9554 112.023 2.03027C112.023 2.10514 112.008 2.18001 111.978 2.25488C111.948 2.32975 111.926 2.38216 111.911 2.41211C111.911 2.44206 111.896 2.48698 111.866 2.54688C111.821 2.62174 111.776 2.65918 111.731 2.65918C111.686 2.65918 111.626 2.69661 111.551 2.77148C111.521 2.81641 111.484 2.86133 111.439 2.90625C111.394 2.95117 111.357 2.98861 111.327 3.01855C111.282 3.09342 111.252 3.16081 111.237 3.2207C111.222 3.2806 111.169 3.32552 111.08 3.35547C111.035 3.37044 110.982 3.37793 110.922 3.37793C110.877 3.36296 110.84 3.37044 110.81 3.40039C110.645 3.46029 110.511 3.49772 110.406 3.5127C110.301 3.52767 110.189 3.54264 110.069 3.55762C109.889 3.63249 109.769 3.66992 109.709 3.66992C109.65 3.66992 109.59 3.67741 109.53 3.69238C109.47 3.70736 109.403 3.72982 109.328 3.75977C109.268 3.77474 109.193 3.7972 109.103 3.82715C109.028 4.08171 108.923 4.29883 108.789 4.47852C108.654 4.6582 108.542 4.87533 108.452 5.12988C108.182 5.56413 107.943 5.96842 107.733 6.34277C107.538 6.71712 107.359 7.0765 107.194 7.4209C107.119 7.49577 107.052 7.58561 106.992 7.69043C106.947 7.79525 106.894 7.90755 106.834 8.02734C106.76 8.17708 106.715 8.25944 106.7 8.27441C106.685 8.28939 106.67 8.31185 106.655 8.3418C106.625 8.40169 106.595 8.46908 106.565 8.54395C106.535 8.60384 106.505 8.67122 106.475 8.74609C106.385 8.86589 106.318 8.9707 106.273 9.06055C106.243 9.13542 106.213 9.21029 106.183 9.28516C106.138 9.36003 106.093 9.4349 106.048 9.50977C106.003 9.58464 105.958 9.66699 105.914 9.75684C105.764 10.1162 105.629 10.4307 105.509 10.7002C105.404 10.9548 105.315 11.2318 105.24 11.5312C105.21 11.6361 105.172 11.7559 105.127 11.8906C105.097 12.0254 105.06 12.1302 105.015 12.2051C104.731 12.9388 104.439 13.6875 104.139 14.4512C103.84 15.2148 103.555 15.986 103.286 16.7646C103.525 16.7646 103.72 16.7272 103.87 16.6523C104.019 16.5625 104.222 16.5176 104.476 16.5176C104.641 16.7422 104.656 16.9668 104.521 17.1914C104.401 17.3411 104.334 17.4535 104.319 17.5283C104.304 17.6032 104.281 17.6706 104.251 17.7305C104.162 17.8353 104.102 17.9102 104.072 17.9551C104.057 18 104.027 18.0449 103.982 18.0898C103.847 18.2096 103.615 18.292 103.286 18.3369C103.121 18.3669 102.979 18.4043 102.859 18.4492C102.754 18.5091 102.634 18.554 102.5 18.584C102.41 18.599 102.327 18.6139 102.252 18.6289C102.178 18.6439 102.11 18.6589 102.05 18.6738C101.99 18.6738 101.931 18.6663 101.871 18.6514C101.826 18.6514 101.781 18.6663 101.736 18.6963C101.481 18.6963 101.264 18.7113 101.084 18.7412C100.92 18.7712 100.755 18.8086 100.59 18.8535C100.471 18.8835 100.358 18.9209 100.253 18.9658C100.134 19.0107 100.006 19.0332 99.8716 19.0332C99.8267 19.0332 99.7817 19.0182 99.7368 18.9883C99.6919 18.9733 99.6395 18.9658 99.5796 18.9658C99.5347 18.9209 99.4897 18.861 99.4448 18.7861C99.3999 18.7262 99.3774 18.6589 99.3774 18.584C99.3774 18.5091 99.3924 18.4342 99.4224 18.3594C99.4373 18.2995 99.4373 18.2321 99.4224 18.1572C99.4224 17.9775 99.4897 17.8428 99.6245 17.7529C99.7443 17.6481 99.8416 17.5358 99.9165 17.416C100.141 17.3861 100.343 17.3337 100.523 17.2588C100.688 17.1839 100.89 17.1315 101.129 17.1016C101.339 16.4876 101.571 15.8587 101.826 15.2148C102.08 14.571 102.327 13.9421 102.567 13.3281C102.612 13.2083 102.657 13.096 102.702 12.9912C102.762 12.8714 102.814 12.7516 102.859 12.6318C102.934 12.4372 103.009 12.25 103.083 12.0703C103.158 11.8757 103.241 11.681 103.331 11.4863C103.42 11.3815 103.488 11.2542 103.533 11.1045C103.563 11.0296 103.578 10.9697 103.578 10.9248C103.593 10.8649 103.615 10.7975 103.645 10.7227C103.705 10.6029 103.772 10.4831 103.847 10.3633C103.922 10.2435 103.997 10.1237 104.072 10.0039C104.177 9.85417 104.281 9.71191 104.386 9.57715C104.506 9.42741 104.618 9.27767 104.723 9.12793C104.828 8.82845 104.94 8.54395 105.06 8.27441C105.195 7.98991 105.322 7.7054 105.442 7.4209C105.472 7.22624 105.532 7.0166 105.622 6.79199C105.726 6.55241 105.816 6.35026 105.891 6.18555C105.981 6.02083 106.056 5.84863 106.116 5.66895C106.176 5.47428 106.258 5.2946 106.363 5.12988C106.393 5.02507 106.43 4.93522 106.475 4.86035C106.52 4.77051 106.557 4.67318 106.587 4.56836C106.647 4.47852 106.692 4.38118 106.722 4.27637C106.767 4.15658 106.812 4.03678 106.857 3.91699C106.797 3.94694 106.737 3.9694 106.677 3.98438C106.632 3.98438 106.58 3.99186 106.52 4.00684C106.475 4.02181 106.423 4.04427 106.363 4.07422C106.303 4.10417 106.236 4.12663 106.161 4.1416C105.921 4.17155 105.711 4.17155 105.532 4.1416C105.337 4.11165 105.21 3.97689 105.15 3.7373C105.135 3.61751 105.157 3.55762 105.217 3.55762C105.292 3.54264 105.345 3.48275 105.375 3.37793C105.36 3.03353 105.404 2.77897 105.509 2.61426C105.614 2.43457 105.749 2.32975 105.914 2.2998C105.988 2.26986 106.056 2.25488 106.116 2.25488C106.176 2.25488 106.236 2.22493 106.295 2.16504C106.445 2.12012 106.595 2.09766 106.745 2.09766C106.909 2.08268 107.074 2.06022 107.239 2.03027C107.403 2.00033 107.561 1.97786 107.71 1.96289C107.86 1.93294 108.002 1.91797 108.137 1.91797C108.302 1.87305 108.452 1.83561 108.586 1.80566C108.721 1.76074 108.886 1.74577 109.081 1.76074C109.185 1.76074 109.283 1.77572 109.373 1.80566C109.462 1.82064 109.56 1.82812 109.665 1.82812C109.769 1.82812 109.867 1.83561 109.957 1.85059C110.061 1.86556 110.174 1.85807 110.293 1.82812C110.383 1.81315 110.466 1.7832 110.541 1.73828C110.63 1.69336 110.72 1.68587 110.81 1.71582C110.96 1.68587 111.11 1.65592 111.259 1.62598C111.424 1.59603 111.589 1.58105 111.753 1.58105C111.918 1.59603 112 1.59603 112 1.58105C112 1.55111 112.023 1.54362 112.068 1.55859L112.18 1.62598ZM111.798 4.61328C111.873 4.49349 111.918 4.38867 111.933 4.29883C111.948 4.19401 111.993 4.08171 112.068 3.96191C112.367 3.7972 112.637 3.60254 112.876 3.37793C113.116 3.13835 113.393 2.94368 113.708 2.79395C113.917 2.64421 114.082 2.54688 114.202 2.50195C114.336 2.44206 114.464 2.36719 114.583 2.27734C114.718 2.21745 114.846 2.15755 114.965 2.09766C115.1 2.03776 115.25 1.98535 115.415 1.94043C115.534 1.91048 115.639 1.87305 115.729 1.82812C115.819 1.76823 115.909 1.72331 115.999 1.69336C116.208 1.61849 116.418 1.55111 116.627 1.49121C116.837 1.43132 117.039 1.37142 117.234 1.31152C117.309 1.28158 117.399 1.24414 117.503 1.19922C117.608 1.1543 117.706 1.13932 117.795 1.1543C117.96 1.18424 118.057 1.19173 118.087 1.17676C118.132 1.16178 118.17 1.1543 118.2 1.1543C118.319 1.13932 118.417 1.1543 118.492 1.19922C118.582 1.24414 118.679 1.28158 118.784 1.31152C118.874 1.34147 118.956 1.36393 119.031 1.37891C119.121 1.39388 119.203 1.41634 119.278 1.44629C119.353 1.47624 119.413 1.52116 119.458 1.58105C119.517 1.62598 119.57 1.6709 119.615 1.71582C119.675 1.74577 119.727 1.7832 119.772 1.82812C119.832 1.87305 119.892 1.91797 119.952 1.96289C120.071 2.21745 120.206 2.47201 120.356 2.72656C120.506 2.98112 120.581 3.28809 120.581 3.64746C120.491 3.78223 120.438 3.84961 120.423 3.84961C120.408 3.84961 120.393 3.86458 120.378 3.89453C120.214 3.99935 120.094 4.09668 120.019 4.18652C119.944 4.26139 119.862 4.34375 119.772 4.43359L119.458 4.74805C119.413 4.77799 119.36 4.80794 119.3 4.83789C119.24 4.85286 119.203 4.89779 119.188 4.97266C119.068 5.03255 118.971 5.10742 118.896 5.19727C118.821 5.28711 118.724 5.35449 118.604 5.39941C118.469 5.56413 118.305 5.69889 118.11 5.80371C117.915 5.89355 117.736 5.99837 117.571 6.11816C117.406 6.22298 117.294 6.29036 117.234 6.32031C117.189 6.35026 117.144 6.3877 117.099 6.43262C116.934 6.50749 116.785 6.58236 116.65 6.65723C116.53 6.7321 116.388 6.79948 116.223 6.85938C116.148 6.88932 116.073 6.92676 115.999 6.97168C115.939 7.0166 115.856 7.03158 115.751 7.0166C115.677 6.98665 115.602 6.95671 115.527 6.92676C115.452 6.88184 115.385 6.91178 115.325 7.0166C115.13 7.04655 114.943 7.0166 114.763 6.92676C114.598 6.82194 114.509 6.67969 114.494 6.5C114.314 6.35026 114.262 6.14811 114.336 5.89355C114.366 5.77376 114.419 5.65397 114.494 5.53418C114.583 5.41439 114.658 5.30208 114.718 5.19727C114.793 5.0625 114.861 4.93522 114.92 4.81543C114.98 4.68066 115.048 4.55339 115.123 4.43359C115.332 4.20898 115.542 3.99935 115.751 3.80469C115.976 3.61003 116.253 3.47526 116.583 3.40039C116.687 3.37044 116.792 3.34049 116.897 3.31055C117.002 3.2806 117.099 3.25065 117.189 3.2207C117.234 3.25065 117.279 3.25065 117.324 3.2207C117.369 3.19076 117.414 3.19076 117.458 3.2207C117.518 3.26562 117.541 3.31803 117.526 3.37793C117.511 3.43783 117.503 3.50521 117.503 3.58008C117.458 3.63997 117.399 3.6849 117.324 3.71484C117.249 3.72982 117.174 3.75228 117.099 3.78223C117.039 3.7972 116.979 3.82715 116.919 3.87207C116.86 3.90202 116.822 3.96191 116.807 4.05176C116.388 4.41113 116.014 4.86035 115.684 5.39941C115.729 5.42936 115.789 5.4668 115.864 5.51172C115.939 5.55664 116.014 5.58659 116.088 5.60156C116.208 5.63151 116.343 5.60156 116.493 5.51172C116.657 5.42188 116.785 5.35449 116.875 5.30957C117.294 5.11491 117.668 4.85286 117.998 4.52344C118.087 4.44857 118.177 4.36621 118.267 4.27637C118.372 4.18652 118.447 4.09668 118.492 4.00684C118.552 3.93197 118.604 3.8571 118.649 3.78223C118.694 3.70736 118.754 3.64746 118.829 3.60254C118.844 3.46777 118.821 3.36296 118.761 3.28809C118.716 3.19824 118.656 3.11589 118.582 3.04102C118.522 2.95117 118.454 2.86882 118.379 2.79395C118.305 2.71908 118.252 2.62923 118.222 2.52441C118.147 2.49447 118.08 2.44206 118.02 2.36719C117.975 2.29232 117.915 2.23991 117.84 2.20996C117.81 2.20996 117.743 2.20247 117.638 2.1875C117.548 2.17253 117.496 2.16504 117.481 2.16504C117.107 2.23991 116.815 2.32227 116.605 2.41211C116.395 2.50195 116.186 2.5918 115.976 2.68164C115.467 2.95117 114.995 3.26562 114.561 3.625C114.516 3.65495 114.464 3.6849 114.404 3.71484C114.344 3.74479 114.299 3.77474 114.269 3.80469C114.194 3.86458 114.127 3.93945 114.067 4.0293C114.022 4.11914 113.962 4.20898 113.887 4.29883C113.812 4.40365 113.73 4.50846 113.64 4.61328C113.565 4.70312 113.513 4.80794 113.483 4.92773C113.393 4.97266 113.333 5.0625 113.303 5.19727C113.273 5.31706 113.221 5.41439 113.146 5.48926C113.116 5.60905 113.079 5.72135 113.034 5.82617C112.989 5.91602 112.951 6.02832 112.921 6.16309C113.056 6.43262 113.153 6.64225 113.213 6.79199C113.288 6.94173 113.363 7.09147 113.438 7.24121C113.453 7.40592 113.498 7.55566 113.573 7.69043C113.663 7.81022 113.745 7.95247 113.82 8.11719C114.029 8.46159 114.217 8.82845 114.381 9.21777C114.561 9.59212 114.756 9.9515 114.965 10.2959C115.055 10.5055 115.138 10.7152 115.212 10.9248C115.302 11.1195 115.43 11.2917 115.594 11.4414C115.624 11.5462 115.662 11.651 115.707 11.7559C115.766 11.8457 115.819 11.943 115.864 12.0479C115.924 12.2275 116.006 12.4222 116.111 12.6318C116.156 12.7516 116.208 12.8564 116.268 12.9463C116.328 13.0361 116.373 13.126 116.403 13.2158C116.463 13.3506 116.508 13.5228 116.538 13.7324C116.583 13.9271 116.597 14.0918 116.583 14.2266C116.583 14.3763 116.575 14.4811 116.56 14.541C116.545 14.6009 116.523 14.6533 116.493 14.6982C116.463 14.7282 116.433 14.7656 116.403 14.8105C116.373 14.8555 116.343 14.9453 116.313 15.0801C116.178 15.3197 116.021 15.5368 115.841 15.7314C115.662 15.9261 115.504 16.1507 115.37 16.4053C115.28 16.5251 115.182 16.6299 115.078 16.7197C114.973 16.8096 114.868 16.8994 114.763 16.9893C114.658 17.0641 114.546 17.1315 114.426 17.1914C114.321 17.2513 114.224 17.3262 114.134 17.416C113.88 17.6406 113.61 17.8053 113.326 17.9102C113.056 18 112.802 18.1273 112.562 18.292C112.472 18.292 112.382 18.2995 112.292 18.3145C112.203 18.3444 112.113 18.3743 112.023 18.4043C111.948 18.4342 111.866 18.4642 111.776 18.4941C111.701 18.5241 111.619 18.554 111.529 18.584C111.454 18.6139 111.387 18.6439 111.327 18.6738C111.282 18.7038 111.222 18.7337 111.147 18.7637C110.937 18.8086 110.713 18.8311 110.473 18.8311C110.234 18.846 109.986 18.8236 109.732 18.7637C109.447 18.6589 109.223 18.6139 109.058 18.6289C108.908 18.6439 108.774 18.584 108.654 18.4492C108.579 18.4193 108.534 18.3818 108.519 18.3369C108.519 18.292 108.489 18.2471 108.429 18.2021C108.264 18.0674 108.16 17.985 108.115 17.9551C108.07 17.9251 108.025 17.8877 107.98 17.8428C107.755 17.6631 107.576 17.4535 107.441 17.2139C107.396 17.139 107.351 17.0641 107.306 16.9893C107.261 16.9144 107.231 16.847 107.216 16.7871C107.186 16.6973 107.186 16.6074 107.216 16.5176C107.231 16.4128 107.209 16.3154 107.149 16.2256C107.164 16.1208 107.164 16.0085 107.149 15.8887C107.134 15.7689 107.126 15.6641 107.126 15.5742C107.126 15.4395 107.149 15.3047 107.194 15.1699C107.224 15.0352 107.216 14.9303 107.171 14.8555C107.201 14.6608 107.246 14.5186 107.306 14.4287C107.366 14.3239 107.441 14.2116 107.531 14.0918C107.785 13.972 107.995 13.8672 108.16 13.7773C108.339 13.6725 108.519 13.5752 108.699 13.4854C108.774 13.4554 108.833 13.4255 108.878 13.3955C108.938 13.3656 108.998 13.3356 109.058 13.3057C109.193 13.2308 109.335 13.1709 109.485 13.126C109.635 13.0811 109.792 13.0212 109.957 12.9463C110.091 12.8714 110.226 12.804 110.361 12.7441C110.511 12.6842 110.653 12.6169 110.788 12.542C110.877 12.542 110.96 12.5195 111.035 12.4746C111.125 12.4297 111.222 12.4072 111.327 12.4072C111.357 12.4072 111.394 12.4147 111.439 12.4297C111.484 12.4297 111.529 12.4297 111.574 12.4297C111.649 12.4297 111.731 12.4297 111.821 12.4297C111.911 12.4297 111.993 12.4447 112.068 12.4746C112.143 12.5046 112.21 12.5495 112.27 12.6094C112.33 12.6693 112.412 12.6992 112.517 12.6992C112.622 12.804 112.704 12.9238 112.764 13.0586C112.839 13.1784 112.899 13.3057 112.944 13.4404C112.974 13.5153 112.996 13.6201 113.011 13.7549C113.041 13.8896 113.056 14.002 113.056 14.0918C113.041 14.3164 112.959 14.4886 112.809 14.6084C112.674 14.7282 112.547 14.8704 112.427 15.0352C112.218 15.11 111.986 15.2373 111.731 15.417C111.581 15.402 111.446 15.432 111.327 15.5068C111.207 15.5667 111.065 15.6191 110.9 15.6641C110.825 15.679 110.743 15.679 110.653 15.6641C110.563 15.6491 110.481 15.6566 110.406 15.6865C110.331 15.7015 110.256 15.7314 110.181 15.7764C110.106 15.8213 110.031 15.8288 109.957 15.7988C109.882 15.7689 109.822 15.709 109.777 15.6191C109.747 15.5293 109.747 15.4395 109.777 15.3496C109.867 15.1999 109.994 15.11 110.159 15.0801C110.338 15.0352 110.511 14.9678 110.675 14.8779C110.825 14.8031 110.952 14.7057 111.057 14.5859C111.177 14.4661 111.297 14.3464 111.417 14.2266C111.491 14.1367 111.581 14.0469 111.686 13.957C111.791 13.8672 111.813 13.7474 111.753 13.5977C111.619 13.4928 111.461 13.4629 111.282 13.5078C111.117 13.5527 110.967 13.6051 110.833 13.665C110.563 13.7848 110.293 13.9121 110.024 14.0469C109.769 14.1816 109.515 14.3089 109.26 14.4287C109.14 14.4736 109.051 14.526 108.991 14.5859C108.961 14.6309 108.938 14.6908 108.923 14.7656C108.908 14.8405 108.886 14.9079 108.856 14.9678C108.751 15.1924 108.721 15.417 108.766 15.6416C108.796 15.7165 108.833 15.7913 108.878 15.8662C108.923 15.9261 108.946 15.9935 108.946 16.0684C109.006 16.1283 109.058 16.1882 109.103 16.248C109.148 16.293 109.193 16.3454 109.238 16.4053C109.283 16.4352 109.32 16.4577 109.35 16.4727C109.38 16.4727 109.425 16.4801 109.485 16.4951C109.635 16.585 109.814 16.6673 110.024 16.7422C110.114 16.7721 110.249 16.8171 110.428 16.877C110.623 16.9368 110.758 16.9668 110.833 16.9668C110.907 16.9818 111.005 16.9668 111.125 16.9219C111.244 16.877 111.349 16.8395 111.439 16.8096C111.783 16.6449 112.135 16.4727 112.495 16.293C112.854 16.1133 113.206 15.9411 113.55 15.7764C113.67 15.7015 113.782 15.6191 113.887 15.5293C113.992 15.4245 114.082 15.3122 114.157 15.1924C114.292 15.0277 114.404 14.8255 114.494 14.5859C114.583 14.3464 114.651 14.0993 114.696 13.8447C114.711 13.7848 114.718 13.7324 114.718 13.6875C114.718 13.6276 114.718 13.5752 114.718 13.5303C114.628 13.3656 114.583 13.2682 114.583 13.2383C114.598 13.1934 114.591 13.1559 114.561 13.126C114.456 12.9463 114.389 12.8265 114.359 12.7666C114.344 12.6917 114.321 12.6243 114.292 12.5645C114.187 12.3997 114.059 12.2575 113.91 12.1377C113.76 12.0179 113.663 11.8382 113.618 11.5986C113.528 11.5238 113.46 11.4264 113.416 11.3066C113.386 11.1868 113.311 11.112 113.191 11.082C113.161 11.0072 113.131 10.9473 113.101 10.9023C113.086 10.8424 113.064 10.7676 113.034 10.6777C112.944 10.5729 112.876 10.4606 112.832 10.3408C112.742 10.266 112.667 10.1836 112.607 10.0938C112.547 10.0039 112.48 9.90658 112.405 9.80176C112.285 9.68197 112.203 9.59212 112.158 9.53223C112.098 9.45736 112.045 9.375 112 9.28516C111.971 9.19531 111.918 9.11296 111.843 9.03809C111.798 8.96322 111.738 8.89583 111.664 8.83594C111.604 8.77604 111.559 8.70117 111.529 8.61133C111.409 8.47656 111.312 8.32682 111.237 8.16211C111.162 7.98242 111.102 7.78776 111.057 7.57812C111.087 7.39844 111.057 7.24121 110.967 7.10645C110.877 6.97168 110.855 6.79948 110.9 6.58984C110.975 6.38021 111.057 6.17057 111.147 5.96094C111.237 5.7513 111.312 5.55664 111.372 5.37695C111.446 5.34701 111.491 5.2946 111.506 5.21973C111.521 5.12988 111.544 5.04753 111.574 4.97266L111.798 4.61328ZM131.721 1.51367C131.736 1.58854 131.766 1.65592 131.811 1.71582C131.856 1.76074 131.901 1.79818 131.946 1.82812C131.961 1.94792 131.968 2.0752 131.968 2.20996C131.983 2.32975 132.006 2.44954 132.036 2.56934C132.036 2.62923 132.036 2.69661 132.036 2.77148C132.036 2.83138 132.058 2.88379 132.103 2.92871C132.058 3.4528 131.983 3.88704 131.878 4.23145C131.789 4.56087 131.706 4.92773 131.631 5.33203C131.616 5.4069 131.594 5.48177 131.564 5.55664C131.549 5.61654 131.542 5.68392 131.542 5.75879C131.527 5.81868 131.519 5.87109 131.519 5.91602C131.534 5.96094 131.534 6.01335 131.519 6.07324C131.489 6.16309 131.444 6.26042 131.384 6.36523C131.324 6.47005 131.264 6.58236 131.205 6.70215C130.965 7.13639 130.695 7.54818 130.396 7.9375C130.111 8.32682 129.752 8.6263 129.318 8.83594C129.153 8.91081 129.011 8.98568 128.891 9.06055C128.786 9.12044 128.652 9.16536 128.487 9.19531C128.382 9.25521 128.255 9.32259 128.105 9.39746C127.97 9.45736 127.835 9.50228 127.701 9.53223C127.641 9.56217 127.581 9.57715 127.521 9.57715C127.461 9.57715 127.401 9.58464 127.341 9.59961C127.266 9.62956 127.199 9.65951 127.139 9.68945C127.094 9.70443 127.049 9.7194 127.004 9.73438C126.885 9.76432 126.795 9.7793 126.735 9.7793C126.63 9.76432 126.555 9.70443 126.51 9.59961C126.465 9.47982 126.443 9.36003 126.443 9.24023C126.383 9.18034 126.316 9.12793 126.241 9.08301C126.166 9.03809 126.113 8.95573 126.083 8.83594C126.039 8.67122 126.009 8.58138 125.994 8.56641C125.979 8.55143 125.964 8.52897 125.949 8.49902C125.874 8.28939 125.844 8.05729 125.859 7.80273C125.889 7.5332 125.949 7.31608 126.039 7.15137C126.069 7.0765 126.113 7.02409 126.173 6.99414C126.233 6.94922 126.271 6.88932 126.286 6.81445C126.405 6.73958 126.51 6.66471 126.6 6.58984C126.69 6.5 126.795 6.41764 126.915 6.34277C127.064 6.08822 127.236 5.89355 127.431 5.75879C127.626 5.62402 127.813 5.48177 127.993 5.33203C128.053 5.28711 128.097 5.2347 128.127 5.1748C128.172 5.11491 128.232 5.05501 128.307 4.99512C128.352 4.9502 128.404 4.91276 128.464 4.88281C128.524 4.83789 128.577 4.80046 128.622 4.77051C128.652 4.74056 128.681 4.71061 128.711 4.68066C128.741 4.65072 128.771 4.62077 128.801 4.59082C128.861 4.56087 128.921 4.5459 128.981 4.5459C129.041 4.5459 129.101 4.53092 129.161 4.50098C129.37 4.47103 129.475 4.486 129.475 4.5459C129.475 4.59082 129.475 4.64323 129.475 4.70312C129.4 4.74805 129.31 4.79297 129.206 4.83789C129.101 4.86784 128.996 4.89779 128.891 4.92773C128.861 5.04753 128.794 5.13737 128.689 5.19727C128.599 5.25716 128.517 5.33952 128.442 5.44434C128.382 5.51921 128.33 5.59408 128.285 5.66895C128.255 5.72884 128.187 5.77376 128.083 5.80371C128.008 5.9834 127.91 6.14062 127.791 6.27539C127.686 6.39518 127.581 6.52246 127.476 6.65723C127.476 6.82194 127.439 6.96419 127.364 7.08398C127.304 7.1888 127.236 7.30111 127.162 7.4209C127.132 7.48079 127.102 7.54069 127.072 7.60059C127.042 7.66048 127.027 7.7054 127.027 7.73535C127.042 7.7653 127.057 7.81022 127.072 7.87012C127.102 7.91504 127.132 7.95996 127.162 8.00488C127.192 8.0498 127.222 8.08724 127.251 8.11719C127.296 8.14714 127.326 8.18457 127.341 8.22949C127.701 8.00488 128.053 7.78027 128.397 7.55566C128.756 7.33105 129.063 7.06152 129.318 6.74707C129.393 6.6123 129.46 6.48503 129.52 6.36523C129.595 6.23047 129.67 6.08822 129.745 5.93848C129.775 5.78874 129.819 5.64648 129.879 5.51172C129.939 5.37695 130.007 5.24219 130.082 5.10742C130.156 4.95768 130.224 4.80794 130.284 4.6582C130.344 4.50846 130.381 4.35124 130.396 4.18652C130.411 4.06673 130.411 3.93945 130.396 3.80469C130.396 3.65495 130.418 3.54264 130.463 3.46777C130.433 3.3929 130.433 3.29557 130.463 3.17578C130.493 3.04102 130.501 2.91374 130.486 2.79395C130.381 2.56934 130.276 2.44206 130.171 2.41211C130.067 2.36719 129.954 2.32975 129.834 2.2998C129.715 2.37467 129.587 2.45703 129.453 2.54688C129.318 2.63672 129.191 2.73405 129.071 2.83887C128.981 2.92871 128.884 3.01855 128.779 3.1084C128.689 3.19824 128.614 3.30306 128.554 3.42285C128.36 3.63249 128.202 3.81966 128.083 3.98438C127.963 4.13411 127.843 4.29134 127.723 4.45605C127.469 4.62077 127.236 4.80046 127.027 4.99512C126.817 5.18978 126.585 5.36947 126.331 5.53418C126.136 5.68392 125.941 5.84115 125.747 6.00586C125.567 6.1556 125.395 6.31283 125.23 6.47754C125.08 6.64225 124.923 6.79948 124.758 6.94922C124.594 7.08398 124.444 7.23372 124.309 7.39844C124.189 7.56315 124.062 7.73535 123.927 7.91504C123.792 8.07975 123.658 8.24447 123.523 8.40918C123.448 8.48405 123.381 8.56641 123.321 8.65625C123.261 8.74609 123.194 8.83594 123.119 8.92578C123.044 9.00065 122.969 9.08301 122.894 9.17285C122.834 9.2627 122.774 9.34505 122.714 9.41992C122.669 9.49479 122.632 9.57715 122.602 9.66699C122.572 9.74186 122.535 9.81673 122.49 9.8916C122.34 10.0713 122.19 10.2585 122.041 10.4531C121.906 10.6328 121.786 10.8424 121.681 11.082C121.501 11.3216 121.359 11.5612 121.254 11.8008C121.165 12.0254 121.06 12.25 120.94 12.4746C120.91 12.6842 120.85 12.8714 120.76 13.0361C120.685 13.2008 120.633 13.388 120.603 13.5977C120.588 13.7025 120.558 13.8073 120.513 13.9121C120.483 14.002 120.461 14.1068 120.446 14.2266C120.416 14.3314 120.401 14.4437 120.401 14.5635C120.401 14.6683 120.386 14.7656 120.356 14.8555C120.266 15.0501 120.221 15.1924 120.221 15.2822C120.221 15.3571 120.184 15.417 120.109 15.4619C120.154 15.5817 120.191 15.6865 120.221 15.7764C120.266 15.8662 120.326 15.9561 120.401 16.0459C120.431 16.1058 120.476 16.1582 120.536 16.2031C120.596 16.248 120.64 16.3005 120.67 16.3604C120.73 16.5101 120.775 16.5999 120.805 16.6299C120.85 16.6598 120.903 16.6973 120.962 16.7422C121.007 16.7721 121.06 16.8096 121.12 16.8545C121.194 16.8994 121.262 16.9294 121.322 16.9443C121.397 16.9743 121.472 16.9893 121.546 16.9893C121.636 16.9743 121.719 16.9743 121.793 16.9893C121.868 16.9893 121.936 16.9967 121.996 17.0117C122.056 17.0117 122.123 17.0042 122.198 16.9893C122.318 16.9593 122.46 16.9294 122.625 16.8994C122.789 16.8545 122.939 16.8171 123.074 16.7871C123.283 16.7272 123.486 16.6673 123.68 16.6074C123.89 16.5475 124.084 16.4801 124.264 16.4053C124.459 16.3304 124.616 16.2256 124.736 16.0908C124.856 15.9561 124.99 15.8512 125.14 15.7764C125.38 15.5967 125.544 15.4544 125.634 15.3496C125.739 15.2298 125.851 15.1325 125.971 15.0576C126.076 14.9229 126.136 14.8555 126.151 14.8555C126.166 14.8555 126.181 14.848 126.196 14.833C126.301 14.7132 126.398 14.6084 126.488 14.5186C126.593 14.4137 126.697 14.3014 126.802 14.1816C126.967 14.1068 127.102 14.0094 127.207 13.8896C127.326 13.8447 127.424 13.7848 127.499 13.71C127.588 13.6351 127.678 13.5602 127.768 13.4854C127.888 13.3955 127.97 13.3281 128.015 13.2832C128.075 13.2233 128.127 13.1634 128.172 13.1035C128.232 13.0436 128.292 12.9762 128.352 12.9014C128.382 12.8714 128.427 12.8415 128.487 12.8115C128.547 12.7666 128.607 12.7067 128.667 12.6318C128.696 12.5869 128.726 12.527 128.756 12.4521C128.786 12.3773 128.839 12.3398 128.914 12.3398C129.003 12.3249 129.101 12.3698 129.206 12.4746C129.31 12.5645 129.363 12.6618 129.363 12.7666C129.228 12.9762 129.153 13.1035 129.138 13.1484C129.033 13.2982 128.921 13.4404 128.801 13.5752C128.681 13.71 128.562 13.8597 128.442 14.0244C128.322 14.1592 128.202 14.3014 128.083 14.4512C127.963 14.5859 127.85 14.7357 127.746 14.9004C127.641 15.0651 127.521 15.2148 127.386 15.3496C127.266 15.4694 127.139 15.6042 127.004 15.7539C126.81 15.9635 126.615 16.1582 126.42 16.3379C126.241 16.5176 126.069 16.7347 125.904 16.9893C125.829 17.0641 125.754 17.139 125.679 17.2139C125.604 17.2738 125.529 17.3411 125.455 17.416C125.38 17.4609 125.305 17.5133 125.23 17.5732C125.17 17.6182 125.103 17.6631 125.028 17.708C124.728 17.8128 124.421 17.9476 124.107 18.1123C123.807 18.292 123.471 18.4342 123.096 18.5391C122.931 18.584 122.759 18.6364 122.58 18.6963C122.415 18.7562 122.228 18.7786 122.018 18.7637C121.988 18.7487 121.951 18.7412 121.906 18.7412C121.861 18.7412 121.816 18.7337 121.771 18.7188C121.681 18.7038 121.584 18.6738 121.479 18.6289C121.389 18.584 121.284 18.554 121.165 18.5391C121.09 18.5391 121.022 18.5465 120.962 18.5615C120.903 18.5915 120.835 18.6064 120.76 18.6064C120.431 18.3968 120.161 18.2171 119.952 18.0674C119.757 17.9326 119.577 17.7679 119.413 17.5732C119.293 17.3786 119.21 17.2588 119.166 17.2139C119.121 17.154 119.068 17.0866 119.008 17.0117C118.948 16.9219 118.889 16.832 118.829 16.7422C118.769 16.6374 118.709 16.5251 118.649 16.4053C118.649 16.3454 118.626 16.293 118.582 16.248C118.552 16.2031 118.522 16.1507 118.492 16.0908C118.417 15.8363 118.379 15.5742 118.379 15.3047C118.379 15.0202 118.387 14.7432 118.402 14.4736C118.417 14.3988 118.417 14.3314 118.402 14.2715C118.387 14.1966 118.379 14.1217 118.379 14.0469C118.379 13.9271 118.402 13.7998 118.447 13.665C118.492 13.5303 118.529 13.403 118.559 13.2832C118.649 12.9538 118.746 12.6468 118.851 12.3623C118.971 12.0628 119.106 11.7858 119.255 11.5312C119.39 11.3516 119.487 11.1794 119.547 11.0146C119.622 10.8499 119.697 10.6777 119.772 10.498C119.847 10.3333 119.922 10.1761 119.997 10.0264C120.071 9.86165 120.154 9.69694 120.244 9.53223C120.319 9.38249 120.393 9.23275 120.468 9.08301C120.558 8.93327 120.67 8.7985 120.805 8.67871C120.85 8.514 120.917 8.37923 121.007 8.27441C121.097 8.15462 121.187 8.03483 121.277 7.91504C121.427 7.7054 121.576 7.51074 121.726 7.33105C121.891 7.15137 122.033 6.94922 122.153 6.72461C122.273 6.63477 122.377 6.53743 122.467 6.43262C122.572 6.3278 122.669 6.22298 122.759 6.11816C122.864 5.99837 122.961 5.89355 123.051 5.80371C123.156 5.69889 123.261 5.58659 123.366 5.4668C123.426 5.42188 123.478 5.37695 123.523 5.33203C123.583 5.27214 123.635 5.21973 123.68 5.1748C123.785 5.05501 123.89 4.9502 123.995 4.86035C124.099 4.77051 124.212 4.68066 124.332 4.59082C124.466 4.53092 124.594 4.44857 124.713 4.34375C124.848 4.20898 124.975 4.07422 125.095 3.93945C125.23 3.78971 125.365 3.65495 125.5 3.53516C125.709 3.32552 125.926 3.12337 126.151 2.92871C126.375 2.71908 126.615 2.5319 126.87 2.36719C127.019 2.20247 127.199 2.06771 127.409 1.96289C127.618 1.8431 127.828 1.73079 128.038 1.62598C128.157 1.58105 128.255 1.54362 128.33 1.51367C128.419 1.46875 128.517 1.41634 128.622 1.35645C128.786 1.25163 128.906 1.19922 128.981 1.19922C129.056 1.18424 129.116 1.14681 129.161 1.08691C129.34 1.08691 129.498 1.06445 129.632 1.01953C129.767 0.959635 129.917 0.952148 130.082 0.99707C130.141 1.01204 130.194 1.03451 130.239 1.06445C130.284 1.07943 130.329 1.0944 130.374 1.10938C130.658 1.13932 130.86 1.18424 130.98 1.24414C131.1 1.30404 131.212 1.36393 131.317 1.42383C131.437 1.46875 131.571 1.4987 131.721 1.51367ZM141.2 1.62598C141.11 1.82064 141.057 1.9554 141.042 2.03027C141.042 2.10514 141.028 2.18001 140.998 2.25488C140.968 2.32975 140.945 2.38216 140.93 2.41211C140.93 2.44206 140.915 2.48698 140.885 2.54688C140.84 2.62174 140.795 2.65918 140.75 2.65918C140.706 2.65918 140.646 2.69661 140.571 2.77148C140.541 2.81641 140.503 2.86133 140.458 2.90625C140.414 2.95117 140.376 2.98861 140.346 3.01855C140.301 3.09342 140.271 3.16081 140.256 3.2207C140.241 3.2806 140.189 3.32552 140.099 3.35547C140.054 3.37044 140.002 3.37793 139.942 3.37793C139.897 3.36296 139.86 3.37044 139.83 3.40039C139.665 3.46029 139.53 3.49772 139.425 3.5127C139.32 3.52767 139.208 3.54264 139.088 3.55762C138.909 3.63249 138.789 3.66992 138.729 3.66992C138.669 3.66992 138.609 3.67741 138.549 3.69238C138.489 3.70736 138.422 3.72982 138.347 3.75977C138.287 3.77474 138.212 3.7972 138.123 3.82715C138.048 4.08171 137.943 4.29883 137.808 4.47852C137.673 4.6582 137.561 4.87533 137.471 5.12988C137.202 5.56413 136.962 5.96842 136.752 6.34277C136.558 6.71712 136.378 7.0765 136.213 7.4209C136.139 7.49577 136.071 7.58561 136.011 7.69043C135.966 7.79525 135.914 7.90755 135.854 8.02734C135.779 8.17708 135.734 8.25944 135.719 8.27441C135.704 8.28939 135.689 8.31185 135.674 8.3418C135.644 8.40169 135.614 8.46908 135.584 8.54395C135.555 8.60384 135.525 8.67122 135.495 8.74609C135.405 8.86589 135.337 8.9707 135.292 9.06055C135.263 9.13542 135.233 9.21029 135.203 9.28516C135.158 9.36003 135.113 9.4349 135.068 9.50977C135.023 9.58464 134.978 9.66699 134.933 9.75684C134.783 10.1162 134.649 10.4307 134.529 10.7002C134.424 10.9548 134.334 11.2318 134.259 11.5312C134.229 11.6361 134.192 11.7559 134.147 11.8906C134.117 12.0254 134.08 12.1302 134.035 12.2051C133.75 12.9388 133.458 13.6875 133.159 14.4512C132.859 15.2148 132.575 15.986 132.305 16.7646C132.545 16.7646 132.739 16.7272 132.889 16.6523C133.039 16.5625 133.241 16.5176 133.496 16.5176C133.66 16.7422 133.675 16.9668 133.541 17.1914C133.421 17.3411 133.353 17.4535 133.338 17.5283C133.323 17.6032 133.301 17.6706 133.271 17.7305C133.181 17.8353 133.121 17.9102 133.091 17.9551C133.076 18 133.046 18.0449 133.001 18.0898C132.867 18.2096 132.635 18.292 132.305 18.3369C132.14 18.3669 131.998 18.4043 131.878 18.4492C131.774 18.5091 131.654 18.554 131.519 18.584C131.429 18.599 131.347 18.6139 131.272 18.6289C131.197 18.6439 131.13 18.6589 131.07 18.6738C131.01 18.6738 130.95 18.6663 130.89 18.6514C130.845 18.6514 130.8 18.6663 130.755 18.6963C130.501 18.6963 130.284 18.7113 130.104 18.7412C129.939 18.7712 129.775 18.8086 129.61 18.8535C129.49 18.8835 129.378 18.9209 129.273 18.9658C129.153 19.0107 129.026 19.0332 128.891 19.0332C128.846 19.0332 128.801 19.0182 128.756 18.9883C128.711 18.9733 128.659 18.9658 128.599 18.9658C128.554 18.9209 128.509 18.861 128.464 18.7861C128.419 18.7262 128.397 18.6589 128.397 18.584C128.397 18.5091 128.412 18.4342 128.442 18.3594C128.457 18.2995 128.457 18.2321 128.442 18.1572C128.442 17.9775 128.509 17.8428 128.644 17.7529C128.764 17.6481 128.861 17.5358 128.936 17.416C129.161 17.3861 129.363 17.3337 129.542 17.2588C129.707 17.1839 129.909 17.1315 130.149 17.1016C130.359 16.4876 130.591 15.8587 130.845 15.2148C131.1 14.571 131.347 13.9421 131.586 13.3281C131.631 13.2083 131.676 13.096 131.721 12.9912C131.781 12.8714 131.833 12.7516 131.878 12.6318C131.953 12.4372 132.028 12.25 132.103 12.0703C132.178 11.8757 132.26 11.681 132.35 11.4863C132.44 11.3815 132.507 11.2542 132.552 11.1045C132.582 11.0296 132.597 10.9697 132.597 10.9248C132.612 10.8649 132.635 10.7975 132.665 10.7227C132.724 10.6029 132.792 10.4831 132.867 10.3633C132.942 10.2435 133.016 10.1237 133.091 10.0039C133.196 9.85417 133.301 9.71191 133.406 9.57715C133.526 9.42741 133.638 9.27767 133.743 9.12793C133.847 8.82845 133.96 8.54395 134.08 8.27441C134.214 7.98991 134.342 7.7054 134.461 7.4209C134.491 7.22624 134.551 7.0166 134.641 6.79199C134.746 6.55241 134.836 6.35026 134.911 6.18555C135 6.02083 135.075 5.84863 135.135 5.66895C135.195 5.47428 135.278 5.2946 135.382 5.12988C135.412 5.02507 135.45 4.93522 135.495 4.86035C135.54 4.77051 135.577 4.67318 135.607 4.56836C135.667 4.47852 135.712 4.38118 135.742 4.27637C135.787 4.15658 135.832 4.03678 135.876 3.91699C135.817 3.94694 135.757 3.9694 135.697 3.98438C135.652 3.98438 135.599 3.99186 135.54 4.00684C135.495 4.02181 135.442 4.04427 135.382 4.07422C135.322 4.10417 135.255 4.12663 135.18 4.1416C134.941 4.17155 134.731 4.17155 134.551 4.1416C134.357 4.11165 134.229 3.97689 134.169 3.7373C134.154 3.61751 134.177 3.55762 134.237 3.55762C134.312 3.54264 134.364 3.48275 134.394 3.37793C134.379 3.03353 134.424 2.77897 134.529 2.61426C134.634 2.43457 134.768 2.32975 134.933 2.2998C135.008 2.26986 135.075 2.25488 135.135 2.25488C135.195 2.25488 135.255 2.22493 135.315 2.16504C135.465 2.12012 135.614 2.09766 135.764 2.09766C135.929 2.08268 136.094 2.06022 136.258 2.03027C136.423 2.00033 136.58 1.97786 136.73 1.96289C136.88 1.93294 137.022 1.91797 137.157 1.91797C137.321 1.87305 137.471 1.83561 137.606 1.80566C137.741 1.76074 137.905 1.74577 138.1 1.76074C138.205 1.76074 138.302 1.77572 138.392 1.80566C138.482 1.82064 138.579 1.82812 138.684 1.82812C138.789 1.82812 138.886 1.83561 138.976 1.85059C139.081 1.86556 139.193 1.85807 139.313 1.82812C139.403 1.81315 139.485 1.7832 139.56 1.73828C139.65 1.69336 139.74 1.68587 139.83 1.71582C139.979 1.68587 140.129 1.65592 140.279 1.62598C140.444 1.59603 140.608 1.58105 140.773 1.58105C140.938 1.59603 141.02 1.59603 141.02 1.58105C141.02 1.55111 141.042 1.54362 141.087 1.55859L141.2 1.62598ZM138.325 16.7422C138.579 16.6673 138.819 16.57 139.043 16.4502C139.283 16.3304 139.545 16.2331 139.83 16.1582C140.204 16.1133 140.578 16.0908 140.953 16.0908C141.342 16.0908 141.701 16.0459 142.031 15.9561C142.39 15.8962 142.712 15.8512 142.997 15.8213C143.296 15.7913 143.573 15.8438 143.828 15.9785C143.858 16.0983 143.858 16.248 143.828 16.4277C143.798 16.5924 143.76 16.7347 143.715 16.8545C143.67 16.9893 143.633 17.0941 143.603 17.1689C143.573 17.2438 143.521 17.3411 143.446 17.4609C143.371 17.5208 143.289 17.5658 143.199 17.5957C143.124 17.6257 143.049 17.6631 142.974 17.708C142.839 17.6781 142.697 17.693 142.547 17.7529C142.502 17.693 142.405 17.6781 142.255 17.708C142.046 17.693 141.851 17.723 141.671 17.7979C141.507 17.8727 141.327 17.8952 141.132 17.8652C141.013 17.8952 140.878 17.9176 140.728 17.9326C140.593 17.9326 140.444 17.9476 140.279 17.9775C140.114 18.0075 139.964 18.0599 139.83 18.1348C139.695 18.2096 139.545 18.2321 139.38 18.2021C139.216 18.277 139.043 18.3444 138.864 18.4043C138.684 18.4792 138.497 18.554 138.302 18.6289C138.138 18.7188 138.04 18.7637 138.01 18.7637C137.995 18.7637 137.973 18.7712 137.943 18.7861C137.793 18.861 137.681 18.9059 137.606 18.9209C137.546 18.9359 137.479 18.9583 137.404 18.9883C137.284 18.9883 137.172 18.9658 137.067 18.9209C136.977 18.891 136.872 18.8535 136.752 18.8086C136.678 18.7637 136.625 18.7113 136.595 18.6514C136.565 18.6064 136.52 18.5391 136.46 18.4492C136.281 18.2695 136.153 18.0824 136.079 17.8877C136.049 17.8577 136.011 17.8278 135.966 17.7979C135.921 17.7679 135.876 17.738 135.832 17.708C135.757 17.4535 135.764 17.2363 135.854 17.0566C135.929 16.862 136.004 16.6673 136.079 16.4727C136.168 16.248 136.243 16.016 136.303 15.7764C136.363 15.5218 136.468 15.3122 136.618 15.1475C136.663 15.0127 136.745 14.8555 136.865 14.6758C136.955 14.526 137.022 14.3688 137.067 14.2041C137.127 14.0394 137.202 13.8822 137.292 13.7324C137.336 13.6576 137.381 13.5902 137.426 13.5303C137.486 13.4554 137.539 13.388 137.583 13.3281C137.598 13.2533 137.621 13.2008 137.651 13.1709C137.696 13.141 137.726 13.0885 137.741 13.0137C137.89 12.8789 138.003 12.7142 138.078 12.5195C138.167 12.3249 138.28 12.1527 138.415 12.0029C138.534 11.8382 138.624 11.6585 138.684 11.4639C138.759 11.2692 138.856 11.0895 138.976 10.9248C139.036 10.7751 139.081 10.6628 139.111 10.5879C139.156 10.513 139.201 10.4307 139.246 10.3408C139.306 10.2061 139.358 10.0488 139.403 9.86914C139.463 9.68945 139.53 9.53971 139.605 9.41992C139.635 9.28516 139.68 9.17285 139.74 9.08301C139.8 8.99316 139.845 8.86589 139.875 8.70117C139.949 8.59635 140.002 8.46908 140.032 8.31934C140.077 8.1696 140.129 8.03483 140.189 7.91504C140.189 7.85514 140.204 7.80273 140.234 7.75781C140.279 7.69792 140.286 7.64551 140.256 7.60059C140.331 7.52572 140.369 7.43587 140.369 7.33105C140.384 7.22624 140.429 7.13639 140.503 7.06152C140.488 6.95671 140.526 6.8444 140.616 6.72461C140.631 6.64974 140.653 6.58984 140.683 6.54492C140.728 6.48503 140.758 6.43262 140.773 6.3877C140.908 6.13314 140.99 5.95345 141.02 5.84863C141.065 5.72884 141.11 5.62402 141.155 5.53418C141.185 5.50423 141.215 5.47428 141.245 5.44434C141.275 5.39941 141.297 5.34701 141.312 5.28711C141.342 5.21224 141.372 5.12988 141.402 5.04004C141.432 4.9502 141.462 4.86784 141.492 4.79297C141.522 4.7181 141.544 4.65072 141.559 4.59082C141.574 4.53092 141.597 4.47852 141.626 4.43359C141.731 4.28385 141.776 4.2015 141.761 4.18652C141.761 4.17155 141.769 4.15658 141.784 4.1416C141.814 4.06673 141.844 3.99935 141.874 3.93945C141.903 3.87956 141.933 3.81966 141.963 3.75977C142.128 3.35547 142.263 3.02604 142.368 2.77148C142.487 2.51693 142.622 2.26237 142.772 2.00781C142.772 1.88802 142.757 1.76823 142.727 1.64844C142.697 1.51367 142.712 1.39388 142.772 1.28906C142.892 1.22917 143.004 1.16178 143.109 1.08691C143.229 0.99707 143.356 0.937174 143.491 0.907227C143.551 0.892253 143.603 0.922201 143.648 0.99707C143.708 1.05697 143.76 1.10189 143.805 1.13184C143.94 1.25163 144.06 1.40137 144.165 1.58105C144.284 1.74577 144.374 1.91797 144.434 2.09766C144.464 2.21745 144.472 2.3597 144.457 2.52441C144.457 2.67415 144.434 2.80143 144.389 2.90625C144.344 3.07096 144.284 3.19824 144.209 3.28809C144.239 3.48275 144.232 3.64746 144.187 3.78223C144.157 3.91699 144.12 4.04427 144.075 4.16406C143.925 4.3138 143.805 4.49349 143.715 4.70312C143.625 4.80794 143.551 4.92773 143.491 5.0625C143.431 5.18229 143.363 5.30208 143.289 5.42188C143.229 5.54167 143.161 5.66146 143.086 5.78125C143.012 5.90104 142.952 6.03581 142.907 6.18555C142.772 6.35026 142.69 6.47754 142.66 6.56738C142.645 6.64225 142.6 6.70964 142.525 6.76953C142.345 7.15885 142.188 7.52572 142.053 7.87012C141.918 8.19954 141.769 8.52148 141.604 8.83594C141.619 8.91081 141.604 8.9707 141.559 9.01562C141.514 9.04557 141.499 9.09798 141.514 9.17285C141.364 9.44238 141.252 9.74935 141.177 10.0938C141.117 10.4382 141.005 10.7451 140.84 11.0146C140.706 11.4489 140.533 11.8457 140.324 12.2051C140.129 12.5495 139.949 12.9238 139.785 13.3281C139.71 13.3581 139.657 13.4479 139.627 13.5977C139.463 13.8522 139.328 14.1367 139.223 14.4512C139.133 14.7656 139.014 15.0576 138.864 15.3271C138.789 15.5518 138.692 15.7839 138.572 16.0234C138.452 16.263 138.37 16.5026 138.325 16.7422ZM147.242 16.7422C147.496 16.6673 147.736 16.57 147.96 16.4502C148.2 16.3304 148.462 16.2331 148.747 16.1582C149.121 16.1133 149.495 16.0908 149.87 16.0908C150.259 16.0908 150.618 16.0459 150.948 15.9561C151.307 15.8962 151.629 15.8512 151.914 15.8213C152.213 15.7913 152.49 15.8438 152.745 15.9785C152.775 16.0983 152.775 16.248 152.745 16.4277C152.715 16.5924 152.677 16.7347 152.632 16.8545C152.587 16.9893 152.55 17.0941 152.52 17.1689C152.49 17.2438 152.438 17.3411 152.363 17.4609C152.288 17.5208 152.206 17.5658 152.116 17.5957C152.041 17.6257 151.966 17.6631 151.891 17.708C151.756 17.6781 151.614 17.693 151.464 17.7529C151.419 17.693 151.322 17.6781 151.172 17.708C150.963 17.693 150.768 17.723 150.588 17.7979C150.424 17.8727 150.244 17.8952 150.049 17.8652C149.93 17.8952 149.795 17.9176 149.645 17.9326C149.51 17.9326 149.361 17.9476 149.196 17.9775C149.031 18.0075 148.881 18.0599 148.747 18.1348C148.612 18.2096 148.462 18.2321 148.297 18.2021C148.133 18.277 147.96 18.3444 147.781 18.4043C147.601 18.4792 147.414 18.554 147.219 18.6289C147.055 18.7188 146.957 18.7637 146.927 18.7637C146.912 18.7637 146.89 18.7712 146.86 18.7861C146.71 18.861 146.598 18.9059 146.523 18.9209C146.463 18.9359 146.396 18.9583 146.321 18.9883C146.201 18.9883 146.089 18.9658 145.984 18.9209C145.894 18.891 145.789 18.8535 145.669 18.8086C145.595 18.7637 145.542 18.7113 145.512 18.6514C145.482 18.6064 145.437 18.5391 145.377 18.4492C145.198 18.2695 145.07 18.0824 144.996 17.8877C144.966 17.8577 144.928 17.8278 144.883 17.7979C144.838 17.7679 144.793 17.738 144.749 17.708C144.674 17.4535 144.681 17.2363 144.771 17.0566C144.846 16.862 144.921 16.6673 144.996 16.4727C145.085 16.248 145.16 16.016 145.22 15.7764C145.28 15.5218 145.385 15.3122 145.535 15.1475C145.58 15.0127 145.662 14.8555 145.782 14.6758C145.872 14.526 145.939 14.3688 145.984 14.2041C146.044 14.0394 146.119 13.8822 146.208 13.7324C146.253 13.6576 146.298 13.5902 146.343 13.5303C146.403 13.4554 146.456 13.388 146.5 13.3281C146.515 13.2533 146.538 13.2008 146.568 13.1709C146.613 13.141 146.643 13.0885 146.658 13.0137C146.807 12.8789 146.92 12.7142 146.995 12.5195C147.084 12.3249 147.197 12.1527 147.332 12.0029C147.451 11.8382 147.541 11.6585 147.601 11.4639C147.676 11.2692 147.773 11.0895 147.893 10.9248C147.953 10.7751 147.998 10.6628 148.028 10.5879C148.073 10.513 148.118 10.4307 148.163 10.3408C148.222 10.2061 148.275 10.0488 148.32 9.86914C148.38 9.68945 148.447 9.53971 148.522 9.41992C148.552 9.28516 148.597 9.17285 148.657 9.08301C148.717 8.99316 148.762 8.86589 148.792 8.70117C148.866 8.59635 148.919 8.46908 148.949 8.31934C148.994 8.1696 149.046 8.03483 149.106 7.91504C149.106 7.85514 149.121 7.80273 149.151 7.75781C149.196 7.69792 149.203 7.64551 149.173 7.60059C149.248 7.52572 149.286 7.43587 149.286 7.33105C149.301 7.22624 149.346 7.13639 149.42 7.06152C149.405 6.95671 149.443 6.8444 149.533 6.72461C149.548 6.64974 149.57 6.58984 149.6 6.54492C149.645 6.48503 149.675 6.43262 149.69 6.3877C149.825 6.13314 149.907 5.95345 149.937 5.84863C149.982 5.72884 150.027 5.62402 150.072 5.53418C150.102 5.50423 150.132 5.47428 150.162 5.44434C150.192 5.39941 150.214 5.34701 150.229 5.28711C150.259 5.21224 150.289 5.12988 150.319 5.04004C150.349 4.9502 150.379 4.86784 150.409 4.79297C150.439 4.7181 150.461 4.65072 150.476 4.59082C150.491 4.53092 150.514 4.47852 150.543 4.43359C150.648 4.28385 150.693 4.2015 150.678 4.18652C150.678 4.17155 150.686 4.15658 150.701 4.1416C150.731 4.06673 150.761 3.99935 150.791 3.93945C150.82 3.87956 150.85 3.81966 150.88 3.75977C151.045 3.35547 151.18 3.02604 151.285 2.77148C151.404 2.51693 151.539 2.26237 151.689 2.00781C151.689 1.88802 151.674 1.76823 151.644 1.64844C151.614 1.51367 151.629 1.39388 151.689 1.28906C151.809 1.22917 151.921 1.16178 152.026 1.08691C152.146 0.99707 152.273 0.937174 152.408 0.907227C152.468 0.892253 152.52 0.922201 152.565 0.99707C152.625 1.05697 152.677 1.10189 152.722 1.13184C152.857 1.25163 152.977 1.40137 153.082 1.58105C153.201 1.74577 153.291 1.91797 153.351 2.09766C153.381 2.21745 153.389 2.3597 153.374 2.52441C153.374 2.67415 153.351 2.80143 153.306 2.90625C153.261 3.07096 153.201 3.19824 153.126 3.28809C153.156 3.48275 153.149 3.64746 153.104 3.78223C153.074 3.91699 153.037 4.04427 152.992 4.16406C152.842 4.3138 152.722 4.49349 152.632 4.70312C152.542 4.80794 152.468 4.92773 152.408 5.0625C152.348 5.18229 152.28 5.30208 152.206 5.42188C152.146 5.54167 152.078 5.66146 152.003 5.78125C151.929 5.90104 151.869 6.03581 151.824 6.18555C151.689 6.35026 151.607 6.47754 151.577 6.56738C151.562 6.64225 151.517 6.70964 151.442 6.76953C151.262 7.15885 151.105 7.52572 150.97 7.87012C150.835 8.19954 150.686 8.52148 150.521 8.83594C150.536 8.91081 150.521 8.9707 150.476 9.01562C150.431 9.04557 150.416 9.09798 150.431 9.17285C150.281 9.44238 150.169 9.74935 150.094 10.0938C150.034 10.4382 149.922 10.7451 149.757 11.0146C149.623 11.4489 149.45 11.8457 149.241 12.2051C149.046 12.5495 148.866 12.9238 148.702 13.3281C148.627 13.3581 148.574 13.4479 148.544 13.5977C148.38 13.8522 148.245 14.1367 148.14 14.4512C148.05 14.7656 147.931 15.0576 147.781 15.3271C147.706 15.5518 147.609 15.7839 147.489 16.0234C147.369 16.263 147.287 16.5026 147.242 16.7422ZM165.727 1.62598C165.712 1.68587 165.705 1.73828 165.705 1.7832C165.705 1.82812 165.697 1.86556 165.682 1.89551C165.847 2.19499 165.937 2.54688 165.952 2.95117C165.982 3.35547 166.012 3.75228 166.042 4.1416C166.116 4.06673 166.184 3.99935 166.244 3.93945C166.304 3.86458 166.363 3.78971 166.423 3.71484C166.498 3.63997 166.558 3.57259 166.603 3.5127C166.648 3.43783 166.7 3.36296 166.76 3.28809C166.79 3.22819 166.828 3.17578 166.873 3.13086C166.932 3.08594 166.985 3.04102 167.03 2.99609C167.105 2.92122 167.18 2.83887 167.254 2.74902C167.329 2.65918 167.404 2.57682 167.479 2.50195C167.539 2.42708 167.591 2.3597 167.636 2.2998C167.696 2.23991 167.756 2.17253 167.816 2.09766C167.936 1.94792 168.056 1.79818 168.175 1.64844C168.295 1.48372 168.437 1.35645 168.602 1.2666C168.737 1.29655 168.812 1.31901 168.827 1.33398C168.842 1.34896 168.864 1.35645 168.894 1.35645C169.089 1.41634 169.201 1.50618 169.231 1.62598C169.276 1.74577 169.298 1.85807 169.298 1.96289C169.298 2.03776 169.291 2.1276 169.276 2.23242C169.261 2.33724 169.238 2.42708 169.208 2.50195C169.179 2.5918 169.141 2.68164 169.096 2.77148C169.051 2.84635 169.029 2.92122 169.029 2.99609C169.014 3.08594 168.991 3.18327 168.961 3.28809C168.946 3.37793 168.909 3.44531 168.849 3.49023C168.879 3.69987 168.834 3.87207 168.714 4.00684C168.61 4.1416 168.52 4.26888 168.445 4.38867C168.385 4.46354 168.333 4.56087 168.288 4.68066C168.228 4.75553 168.19 4.8304 168.175 4.90527C168.16 4.96517 168.115 5.03255 168.041 5.10742C167.996 5.16732 167.928 5.22721 167.838 5.28711C167.764 5.33203 167.696 5.38444 167.636 5.44434C167.501 5.60905 167.412 5.71387 167.367 5.75879C167.322 5.80371 167.284 5.84115 167.254 5.87109C167.18 5.96094 167.12 6.05827 167.075 6.16309C167.03 6.25293 166.97 6.33529 166.895 6.41016C166.85 6.47005 166.798 6.52246 166.738 6.56738C166.693 6.59733 166.655 6.63477 166.625 6.67969C166.596 6.72461 166.566 6.77702 166.536 6.83691C166.521 6.89681 166.498 6.95671 166.468 7.0166C166.438 7.0765 166.408 7.12891 166.378 7.17383C166.348 7.21875 166.319 7.26367 166.289 7.30859C166.259 7.36849 166.236 7.42839 166.221 7.48828C166.206 7.54818 166.176 7.60807 166.131 7.66797C166.012 7.8776 165.907 8.07227 165.817 8.25195C165.772 8.3418 165.735 8.43913 165.705 8.54395C165.675 8.63379 165.637 8.72363 165.592 8.81348C165.562 8.90332 165.525 8.99316 165.48 9.08301C165.435 9.15788 165.398 9.23275 165.368 9.30762C165.293 9.47233 165.225 9.65202 165.166 9.84668C165.121 10.0264 165.061 10.1986 164.986 10.3633C164.926 10.498 164.874 10.6328 164.829 10.7676C164.784 10.9023 164.724 11.0296 164.649 11.1494C164.574 11.4339 164.507 11.7109 164.447 11.9805C164.387 12.25 164.305 12.527 164.2 12.8115C164.095 13.111 163.99 13.4255 163.885 13.7549C163.795 14.0693 163.706 14.3838 163.616 14.6982C163.541 15.0576 163.481 15.3945 163.436 15.709C163.406 16.0234 163.406 16.3604 163.436 16.7197C163.526 16.7197 163.608 16.7422 163.683 16.7871C163.773 16.832 163.863 16.8395 163.953 16.8096C164.028 16.7946 164.102 16.7572 164.177 16.6973C164.252 16.6374 164.342 16.585 164.447 16.54C164.522 16.5101 164.582 16.4951 164.626 16.4951C164.686 16.4801 164.731 16.4427 164.761 16.3828C164.851 16.3529 164.933 16.3229 165.008 16.293C165.083 16.248 165.151 16.1882 165.21 16.1133C165.375 16.0684 165.525 16.001 165.66 15.9111C165.794 15.8063 165.929 15.7165 166.064 15.6416C166.139 15.5967 166.214 15.5518 166.289 15.5068C166.363 15.4619 166.438 15.417 166.513 15.3721C166.588 15.3421 166.663 15.3122 166.738 15.2822C166.813 15.2523 166.88 15.2074 166.94 15.1475C166.97 15.1175 167.03 15.0726 167.12 15.0127C167.209 14.9528 167.277 14.9079 167.322 14.8779C167.472 14.833 167.591 14.7806 167.681 14.7207C167.771 14.6458 167.831 14.5934 167.861 14.5635C167.921 14.5785 168.011 14.5485 168.13 14.4736C168.265 14.3988 168.37 14.3613 168.445 14.3613C168.505 14.3913 168.565 14.4137 168.625 14.4287C168.684 14.4287 168.737 14.4437 168.782 14.4736C168.767 14.5335 168.759 14.5934 168.759 14.6533C168.774 14.6982 168.782 14.7432 168.782 14.7881C168.782 14.818 168.737 14.8854 168.647 14.9902C168.572 15.0951 168.52 15.1624 168.49 15.1924C168.445 15.2523 168.355 15.3346 168.22 15.4395C168.1 15.5443 168.003 15.6117 167.928 15.6416C167.853 15.8063 167.741 15.9561 167.591 16.0908C167.457 16.2106 167.329 16.3304 167.209 16.4502C167.06 16.5251 166.917 16.6224 166.783 16.7422C166.648 16.862 166.528 16.9743 166.423 17.0791C166.064 17.2887 165.697 17.5283 165.323 17.7979C164.948 18.0524 164.552 18.2845 164.132 18.4941C163.953 18.569 163.78 18.6439 163.616 18.7188C163.451 18.8086 163.249 18.8685 163.009 18.8984C162.875 18.9134 162.755 18.8984 162.65 18.8535C162.56 18.8236 162.455 18.7936 162.335 18.7637C162.291 18.6289 162.231 18.5091 162.156 18.4043C162.081 18.2995 162.006 18.1947 161.931 18.0898C161.856 17.985 161.789 17.8802 161.729 17.7754C161.684 17.6556 161.662 17.5208 161.662 17.3711C161.647 17.3262 161.647 17.2738 161.662 17.2139C161.677 17.154 161.692 17.0941 161.707 17.0342C161.722 16.9893 161.729 16.9443 161.729 16.8994C161.729 16.8545 161.736 16.8021 161.751 16.7422C161.781 16.5775 161.811 16.4202 161.841 16.2705C161.886 16.1058 161.924 15.9336 161.954 15.7539C161.939 15.5143 161.946 15.3047 161.976 15.125C162.021 14.9453 162.051 14.7507 162.066 14.541C161.991 14.571 161.931 14.6159 161.886 14.6758C161.856 14.7207 161.804 14.7581 161.729 14.7881C161.609 14.9229 161.474 15.0501 161.325 15.1699C161.19 15.2897 161.033 15.3945 160.853 15.4844C160.658 15.6191 160.471 15.7614 160.292 15.9111C160.112 16.0609 159.917 16.1956 159.708 16.3154C159.378 16.6149 159.034 16.8919 158.674 17.1465C158.315 17.3861 157.963 17.6406 157.619 17.9102C157.499 17.9551 157.379 18 157.259 18.0449C157.154 18.1048 157.027 18.1423 156.877 18.1572C156.713 18.2471 156.556 18.2546 156.406 18.1797C156.271 18.1198 156.144 18.0524 156.024 17.9775C155.934 17.9027 155.852 17.8353 155.777 17.7754C155.717 17.7155 155.642 17.6481 155.552 17.5732C155.388 17.3037 155.26 17.0566 155.17 16.832C155.096 16.5924 154.983 16.3903 154.833 16.2256C154.819 16.1507 154.796 16.0908 154.766 16.0459C154.736 15.986 154.699 15.9261 154.654 15.8662C154.609 15.6715 154.579 15.4919 154.564 15.3271C154.564 15.1624 154.556 14.9902 154.542 14.8105C154.556 14.4811 154.616 14.1742 154.721 13.8896C154.841 13.6051 154.938 13.3431 155.013 13.1035C155.028 13.0586 155.036 13.0137 155.036 12.9688C155.036 12.9238 155.043 12.8789 155.058 12.834C155.073 12.7891 155.088 12.7367 155.103 12.6768C155.133 12.6169 155.163 12.557 155.193 12.4971C155.223 12.3773 155.26 12.265 155.305 12.1602C155.35 12.0553 155.388 11.943 155.417 11.8232C155.447 11.7484 155.47 11.6885 155.485 11.6436C155.5 11.5986 155.522 11.5537 155.552 11.5088C155.627 11.374 155.68 11.2393 155.709 11.1045C155.754 10.9697 155.799 10.835 155.844 10.7002C155.964 10.3109 156.091 9.92904 156.226 9.55469C156.376 9.16536 156.556 8.7985 156.765 8.4541C156.795 8.40918 156.825 8.37174 156.855 8.3418C156.9 8.29688 156.937 8.25195 156.967 8.20703L157.439 7.46582C157.604 7.24121 157.776 7.03158 157.956 6.83691C158.15 6.62728 158.33 6.41764 158.495 6.20801C158.704 6.01335 158.891 5.80371 159.056 5.5791C159.221 5.35449 159.408 5.15234 159.618 4.97266C159.648 4.88281 159.7 4.81543 159.775 4.77051C159.85 4.71061 159.902 4.63574 159.932 4.5459C160.067 4.45605 160.179 4.34375 160.269 4.20898C160.374 4.07422 160.501 3.96191 160.651 3.87207C160.935 3.55762 161.227 3.25814 161.527 2.97363C161.826 2.67415 162.126 2.37467 162.425 2.0752C162.68 2.04525 162.852 1.94792 162.942 1.7832C163.152 1.64844 163.384 1.50618 163.638 1.35645C163.908 1.20671 164.17 1.0944 164.424 1.01953C164.499 0.989583 164.597 0.99707 164.716 1.04199C164.851 1.08691 164.963 1.12435 165.053 1.1543C165.278 1.19922 165.428 1.27409 165.502 1.37891C165.577 1.46875 165.652 1.55111 165.727 1.62598ZM156.496 14.1816C156.57 14.4661 156.63 14.7207 156.675 14.9453C156.735 15.1699 156.81 15.4095 156.9 15.6641C156.96 15.694 156.997 15.7389 157.012 15.7988C157.027 15.8438 157.072 15.8812 157.147 15.9111C157.207 15.9411 157.297 15.9635 157.417 15.9785C157.536 15.9785 157.619 15.971 157.664 15.9561C157.738 15.9261 157.813 15.8887 157.888 15.8438C158.008 15.7839 158.12 15.724 158.225 15.6641C158.33 15.5892 158.442 15.5218 158.562 15.4619C158.637 15.432 158.712 15.402 158.787 15.3721C158.861 15.3421 158.936 15.3122 159.011 15.2822C159.161 15.2523 159.288 15.2074 159.393 15.1475C159.513 15.0876 159.633 15.0202 159.752 14.9453C160.052 14.7806 160.344 14.5859 160.628 14.3613C160.928 14.1217 161.22 13.9196 161.504 13.7549C161.894 13.2757 162.261 12.7441 162.605 12.1602C162.964 11.5762 163.204 10.8949 163.324 10.1162C163.339 9.93652 163.354 9.79427 163.369 9.68945C163.399 9.56966 163.429 9.44987 163.458 9.33008C163.488 9.24023 163.511 9.1429 163.526 9.03809C163.556 8.91829 163.586 8.82096 163.616 8.74609C163.736 8.35677 163.825 7.98991 163.885 7.64551C163.945 7.30111 164.028 6.96419 164.132 6.63477C164.177 6.51497 164.215 6.39518 164.245 6.27539C164.29 6.14062 164.327 6.02083 164.357 5.91602C164.447 5.8112 164.484 5.73633 164.469 5.69141C164.469 5.64648 164.477 5.60905 164.492 5.5791C164.522 5.50423 164.552 5.44434 164.582 5.39941C164.611 5.33952 164.641 5.27214 164.671 5.19727C164.731 5.04753 164.791 4.86784 164.851 4.6582C164.911 4.43359 164.941 4.23893 164.941 4.07422C164.896 3.81966 164.859 3.64746 164.829 3.55762C164.814 3.46777 164.784 3.36296 164.739 3.24316C164.694 3.12337 164.626 2.97363 164.537 2.79395C164.447 2.59928 164.342 2.48698 164.222 2.45703C164.057 2.42708 163.9 2.49447 163.75 2.65918C163.601 2.80892 163.488 2.92122 163.414 2.99609C163.384 3.02604 163.339 3.05599 163.279 3.08594C163.234 3.10091 163.196 3.13086 163.167 3.17578C163.137 3.20573 163.099 3.24316 163.054 3.28809C163.024 3.33301 162.987 3.37793 162.942 3.42285C162.912 3.4528 162.875 3.49023 162.83 3.53516C162.8 3.58008 162.77 3.625 162.74 3.66992C162.68 3.74479 162.612 3.82715 162.538 3.91699C162.478 3.99186 162.41 4.07422 162.335 4.16406C162.261 4.23893 162.201 4.32129 162.156 4.41113C162.111 4.50098 162.051 4.58333 161.976 4.6582C161.886 4.76302 161.796 4.86035 161.707 4.9502C161.617 5.04004 161.549 5.14486 161.504 5.26465C161.34 5.38444 161.182 5.53418 161.033 5.71387C160.958 5.80371 160.89 5.89355 160.831 5.9834C160.771 6.07324 160.718 6.17057 160.673 6.27539C160.554 6.33529 160.456 6.42513 160.381 6.54492C160.321 6.66471 160.247 6.76204 160.157 6.83691C160.022 6.95671 159.94 7.04655 159.91 7.10645C159.895 7.15137 159.872 7.1888 159.842 7.21875C159.618 7.48828 159.408 7.77279 159.213 8.07227C159.034 8.37174 158.861 8.67871 158.697 8.99316C158.712 9.03809 158.704 9.08301 158.674 9.12793C158.644 9.15788 158.629 9.21029 158.629 9.28516C158.54 9.40495 158.457 9.5472 158.382 9.71191C158.322 9.83171 158.27 9.9515 158.225 10.0713C158.195 10.1761 158.158 10.2884 158.113 10.4082C158.083 10.4681 158.053 10.5205 158.023 10.5654C158.008 10.6104 157.986 10.6553 157.956 10.7002C157.926 10.79 157.896 10.8799 157.866 10.9697C157.836 11.0446 157.806 11.1195 157.776 11.1943C157.746 11.2692 157.708 11.3441 157.664 11.4189C157.619 11.4938 157.566 11.5687 157.506 11.6436C157.476 11.7035 157.454 11.7708 157.439 11.8457C157.439 11.9056 157.424 11.9655 157.394 12.0254C157.364 12.1003 157.327 12.1676 157.282 12.2275C157.252 12.2874 157.222 12.3548 157.192 12.4297C157.162 12.5046 157.132 12.5869 157.102 12.6768C157.087 12.7516 157.065 12.8265 157.035 12.9014C157.005 12.9463 156.975 12.9837 156.945 13.0137C156.93 13.0436 156.907 13.0736 156.877 13.1035C156.847 13.1484 156.825 13.2008 156.81 13.2607C156.795 13.3057 156.773 13.3506 156.743 13.3955C156.668 13.4704 156.593 13.5378 156.518 13.5977C156.443 13.6576 156.383 13.7399 156.338 13.8447C156.368 13.8747 156.391 13.9271 156.406 14.002C156.436 14.0768 156.466 14.1367 156.496 14.1816Z" fill="#FF0187"/>
</svg>
