<svg width="43" height="43" viewBox="0 0 43 43" fill="none" xmlns="http://www.w3.org/2000/svg">
<path d="M38.9688 21.5H32.25V16.125C32.25 13.1604 34.6604 10.75 37.625 10.75H38.2969C39.4139 10.75 40.3125 9.85137 40.3125 8.73438V4.70312C40.3125 3.58613 39.4139 2.6875 38.2969 2.6875H37.625C30.2008 2.6875 24.1875 8.70078 24.1875 16.125V36.2812C24.1875 38.5068 25.9932 40.3125 28.2188 40.3125H38.9688C41.1943 40.3125 43 38.5068 43 36.2812V25.5312C43 23.3057 41.1943 21.5 38.9688 21.5ZM14.7812 21.5H8.0625V16.125C8.0625 13.1604 10.4729 10.75 13.4375 10.75H14.1094C15.2264 10.75 16.125 9.85137 16.125 8.73438V4.70312C16.125 3.58613 15.2264 2.6875 14.1094 2.6875H13.4375C6.01328 2.6875 0 8.70078 0 16.125V36.2812C0 38.5068 1.80566 40.3125 4.03125 40.3125H14.7812C17.0068 40.3125 18.8125 38.5068 18.8125 36.2812V25.5312C18.8125 23.3057 17.0068 21.5 14.7812 21.5Z" fill="white"/>
</svg>
